<?xml version="1.0" encoding="utf-8"?>
<!-- Generator: Adobe Illustrator 16.0.0, SVG Export Plug-In . SVG Version: 6.00 Build 0)  -->
<!DOCTYPE svg PUBLIC "-//W3C//DTD SVG 1.1//EN" "http://www.w3.org/Graphics/SVG/1.1/DTD/svg11.dtd">
<svg version="1.1" id="Layer_1" xmlns="http://www.w3.org/2000/svg" xmlns:xlink="http://www.w3.org/1999/xlink" x="0px" y="0px"
	 width="193.999px" height="194px" viewBox="0 0 193.999 194" enable-background="new 0 0 193.999 194" xml:space="preserve">
<g>
	<path fill="#FFFFFF" d="M97,0l-9.938,0.469l-9.625,1.562l-9.312,2.313l-8.844,3.25l-8.531,4.031l-7.906,4.969l-7.469,5.594
		l-6.969,6.218l-6.219,6.813l-5.593,7.469l-4.969,8.062l-4.031,8.375l-3.25,9l-2.313,9.156l-1.562,9.625L0,96.844l0.469,9.938
		l1.562,9.625l2.313,9.313l3.25,9l4.031,8.531l4.969,7.906l5.593,7.469l6.219,6.969l6.969,6.219l7.469,5.594l7.906,4.813
		l8.531,4.188l8.844,3.25l9.312,2.313l9.625,1.563L97,194l9.937-0.469l9.625-1.563l9.313-2.313l8.844-3.25l8.531-4.188l7.906-4.813
		l7.469-5.594l6.969-6.219l6.219-6.969l5.594-7.469l4.969-7.906l4.031-8.531l3.25-9l2.313-9.313l1.563-9.625l0.469-9.938
		l-0.469-9.938l-1.563-9.625l-2.313-9.156l-3.25-9l-4.031-8.375l-4.969-8.062l-5.594-7.469l-6.219-6.813l-6.969-6.218l-7.469-5.594
		l-7.906-4.969l-8.531-4.031l-8.844-3.25l-9.313-2.313l-9.625-1.562L97,0z M96.375,7.125l3.562,4.375l3.438,4.781l3.094,4.813
		l2.781,5.281l2.656,5.281l2.469,5.594l2.188,5.75l2,5.875l0.313,1.031L121.688,52l2.937,2.469l2.938,2.5l2.812,2.781l2.625,2.938
		l2.813,3.125l2.468,3.406l2.469,3.406l2.344,3.719l2.188,4.062l2.157,4.032l0.5,1.062l1.062-1.844l3.094-6.218l2.47-6.219
		l2.187-5.719l1.563-5.281l0.906-4.813l0.469-4.187l-0.156,6.187l-0.313,6.219l-0.594,5.75l-0.781,5.75l-0.938,5.406l-1.25,5.438
		l-1.219,4.969l-1.563,4.969l-0.375,1.031l0.375,1l1.563,4.969l1.219,5.125l1.25,5.25l0.938,5.438l0.781,5.75l0.594,5.75
		l0.313,6.188l0.156,6.219l-0.469-4.188l-0.906-4.813l-1.563-5.281l-2.187-5.75l-2.47-6.031l-3.094-6.219l-1.094-1.844h-0.063
		l-0.405,0.906l-2.157,4.188l-2.188,3.875l-2.344,3.75l-2.469,3.563l-2.468,3.25l-2.813,3.281l-2.625,2.938l-2.812,2.781l-2.938,2.5
		l-2.937,2.313l-2.595,2.031l-0.531,1.844l-2,5.906l-2.188,5.75l-2.469,5.438l-2.656,5.438l-2.781,4.938l-3.094,4.969l-3.438,4.531
		l-3.562,4.188l-3.094-4.188l-3.094-4.531l-2.812-4.969l-2.625-5.094l-2.5-5.281l-2.313-5.594l-0.875-2.25l-0.843-0.094
		l-5.282-1.375l-5.125-1.875l-4.968-2.469l-4.969-2.969l-4.656-3.406l-4.344-4.031l-4.031-4.188l-3.719-4.656l-3.25-4.969
		l-2.813-5.125l-2.312-5.438l-1.563-5.749l-1.062-5.719L29.812,97l2.938,4.813l3.406,4.656l3.563,4.188l3.75,3.875l4.031,3.563
		l4.187,3.28l4.188,2.782l4.187,2.625l4.344,2.188l4.188,1.875L72.25,132l-1-4.438l-1.094-6.188l-0.781-6.062l-0.625-6.063
		l-0.469-6.031l-0.156-5.906l0.156-6.063l0.469-6.187l0.625-6.219l0.937-6.375l1.094-6.5l0.875-4.125l-3.687,1.312l-4.188,1.719
		l-4.344,2.188l-4.187,2.625l-4.188,2.937L47.5,75.75l-4.031,3.563l-3.75,4.031l-3.563,4.187l-3.406,4.5l-2.938,4.813l0.313-5.906
		l1.062-5.719l1.563-5.594l2.312-5.437l2.813-5.282l3.25-4.812l3.719-4.656l4.031-4.344l4.344-3.875l4.656-3.406l4.969-2.969
		l4.968-2.469l5.125-1.875l5.282-1.375l0.718-0.094l1.469-3.968l2.313-5.563l2.5-5.281l2.625-4.813l2.781-4.656l2.812-4.031
		L96.375,7.125z M78.937,39.031l-0.718,1.938l-2,6.062L74.5,53.219l-1.719,6.375l-0.5,2.25l0.656-0.219l4.032-1.094L81,59.906
		l3.75-0.312l3.562,0.156l3.25,0.469l7.75,2.312l7.313,3.282l6.969,4.031l6.375,4.656l4.72,4l-0.688-5.406l-0.937-6.219
		l-1.375-6.031l-1.407-6.063l-1.406-4.875l-0.156-0.093l-2.938-2l-3.094-1.719l-2.969-1.719L106.624,43l-3.094-1.25l-3.125-0.937
		l-2.937-0.938l-3.094-0.625l-2.969-0.437L88.469,38.5h-5.125L78.937,39.031z M124.688,78.5l0.093,0.656l0.625,6.063l0.313,6.031
		l0.156,6.063l-0.156,5.906l-0.313,6.031l-0.625,6.063l1.25-1.094l5.563-5.594l4.969-6.031L140.749,97l-4.188-5.594l-4.969-6.062
		l-5.563-5.719L124.688,78.5z M140.749,97l0.031,0.032v-0.063L140.749,97z M124.78,115.313l-4.813,4.187l-6.375,4.657l-6.969,3.875
		l-7.313,3.25l-7.75,2.344l-3.25,0.469l-3.562,0.156L81,133.938l-4.031-0.625l-4.032-1.094L72.25,132l0.375,1.625l1.562,6.063
		l1.719,6.063l1.844,5.875l1.312,3.344l4.282,0.531h5.125l2.937-0.313l2.969-0.469l3.094-0.594l2.937-0.938l3.125-0.938l3.094-1.25
		l3.094-1.375l2.969-1.719l3.094-1.875l2.938-1.844l0.375-0.313l1.188-4.031l1.407-6.063l1.375-6.219l0.937-6.031L124.78,115.313z
		 M152.499,96.938l-0.094-0.25v0.5L152.499,96.938z"/>
</g>
</svg>
