<?xml version="1.0" encoding="UTF-8"?>
<svg width="233.97" height="235.36" enable-background="new 0 0 293.041 286.96" version="1.1" viewBox="0 0 233.97 235.36" xml:space="preserve" xmlns="http://www.w3.org/2000/svg" xmlns:xlink="http://www.w3.org/1999/xlink"><g transform="translate(-30.479,-26.395)"><defs><rect id="SVGID_1_" width="293.04" height="286.96"/></defs><clipPath id="SVGID_2_"><use overflow="visible" xlink:href="#SVGID_1_"/></clipPath><path d="m147.52 46.478-9.938 0.469-9.625 1.562-9.312 2.313-8.844 3.25-8.531 4.031-7.906 4.969-7.469 5.594-6.969 6.218-6.219 6.813-5.593 7.469-4.969 8.062-4.031 8.375-3.25 9-2.313 9.156-1.562 9.625-0.469 9.938 0.469 9.938 1.562 9.625 2.313 9.313 3.25 9 4.031 8.531 4.969 7.906 5.593 7.469 6.219 6.969 6.969 6.219 7.469 5.594 7.906 4.813 8.531 4.188 8.844 3.25 9.312 2.313 9.625 1.563 9.938 0.469 9.937-0.469 9.625-1.563 9.313-2.313 8.844-3.25 8.531-4.188 7.906-4.813 7.469-5.594 6.969-6.219 6.219-6.969 5.594-7.469 4.969-7.906 4.031-8.531 3.25-9 2.313-9.313 1.563-9.625 0.469-9.938-0.469-9.938-1.563-9.625-2.313-9.156-3.25-9-4.031-8.375-4.969-8.062-5.594-7.469-6.219-6.813-6.969-6.218-7.469-5.594-7.906-4.969-8.531-4.031-8.844-3.25-9.313-2.313-9.625-1.562zm-0.625 7.125 3.562 4.375 3.438 4.781 3.094 4.813 2.781 5.281 2.656 5.281 2.469 5.594 2.188 5.75 2 5.875 0.313 1.031 2.813 2.094 2.937 2.469 2.938 2.5 2.812 2.781 2.625 2.938 2.813 3.125 2.468 3.406 2.469 3.406 2.344 3.719 2.188 4.062 2.157 4.032 0.5 1.062 1.062-1.844 3.094-6.218 2.47-6.219 2.187-5.719 1.563-5.281 0.906-4.813 0.469-4.187-0.156 6.187-0.313 6.219-0.594 5.75-0.781 5.75-0.938 5.406-1.25 5.438-1.219 4.969-1.563 4.969-0.375 1.031 0.375 1 1.563 4.969 1.219 5.125 1.25 5.25 0.938 5.438 0.781 5.75 0.594 5.75 0.313 6.188 0.156 6.219-0.469-4.188-0.906-4.813-1.563-5.281-2.187-5.75-2.47-6.031-3.094-6.219-1.094-1.844h-0.063l-0.405 0.906-2.157 4.188-2.188 3.875-2.344 3.75-2.469 3.563-2.468 3.25-2.813 3.281-2.625 2.938-2.812 2.781-2.938 2.5-2.937 2.313-2.595 2.031-0.531 1.844-2 5.906-2.188 5.75-2.469 5.438-2.656 5.438-2.781 4.938-3.094 4.969-3.438 4.531-3.562 4.188-3.094-4.188-3.094-4.531-2.812-4.969-2.625-5.094-2.5-5.281-2.313-5.594-0.875-2.25-0.843-0.094-5.282-1.375-5.125-1.875-4.968-2.469-4.969-2.969-4.656-3.406-4.344-4.031-4.031-4.188-3.719-4.656-3.25-4.969-2.813-5.125-2.312-5.438-1.563-5.749-1.062-5.719-0.313-5.907 2.938 4.813 3.406 4.656 3.563 4.188 3.75 3.875 4.031 3.563 4.187 3.28 4.188 2.782 4.187 2.625 4.344 2.188 4.188 1.875 3.656 1.156-1-4.438-1.094-6.188-0.781-6.062-0.625-6.063-0.469-6.031-0.156-5.906 0.156-6.063 0.469-6.187 0.625-6.219 0.937-6.375 1.094-6.5 0.875-4.125-3.687 1.312-4.188 1.719-4.344 2.188-4.187 2.625-4.188 2.937-4.187 3.125-4.031 3.563-3.75 4.031-3.563 4.187-3.406 4.5-2.938 4.813 0.313-5.906 1.062-5.719 1.563-5.594 2.312-5.437 2.813-5.282 3.25-4.812 3.719-4.656 4.031-4.344 4.344-3.875 4.656-3.406 4.969-2.969 4.968-2.469 5.125-1.875 5.282-1.375 0.718-0.094 1.469-3.968 2.313-5.563 2.5-5.281 2.625-4.813 2.781-4.656 2.812-4.031zm-17.438 31.906-0.718 1.938-2 6.062-1.719 6.188-1.719 6.375-0.5 2.25 0.656-0.219 4.032-1.094 4.031-0.625 3.75-0.312 3.562 0.156 3.25 0.469 7.75 2.312 7.313 3.282 6.969 4.031 6.375 4.656 4.72 4-0.688-5.406-0.937-6.219-1.375-6.031-1.407-6.063-1.406-4.875-0.156-0.093-2.938-2-3.094-1.719-2.969-1.719-3.094-1.375-3.094-1.25-3.125-0.937-2.937-0.938-3.094-0.625-2.969-0.437-2.937-0.313h-5.125zm45.75 39.469 0.093 0.656 0.625 6.063 0.313 6.031 0.156 6.063-0.156 5.906-0.313 6.031-0.625 6.063 1.25-1.094 5.563-5.594 4.969-6.031 4.188-5.594-4.188-5.594-4.969-6.062-5.563-5.719zm16.062 18.5 0.031 0.032v-0.063zm-15.969 18.313-4.813 4.187-6.375 4.657-6.969 3.875-7.313 3.25-7.75 2.344-3.25 0.469-3.562 0.156-3.75-0.313-4.031-0.625-4.032-1.094-0.687-0.219 0.375 1.625 1.562 6.063 1.719 6.063 1.844 5.875 1.312 3.344 4.282 0.531h5.125l2.937-0.313 2.969-0.469 3.094-0.594 2.937-0.938 3.125-0.938 3.094-1.25 3.094-1.375 2.969-1.719 3.094-1.875 2.938-1.844 0.375-0.313 1.188-4.031 1.407-6.063 1.375-6.219 0.937-6.031zm27.719-18.375-0.094-0.25v0.5z" clip-path="url(#SVGID_2_)" fill="#13110c"/><polygon points="104.44 249.03 101.62 248.42 102.2 246.96 104.7 248.43 104.72 248.38 103.8 245.62 105.4 245.39 105.4 248.3 105.44 248.29 107.45 246.2 108.39 247.45 105.84 248.85 105.82 248.9 108.58 249.51 108 250.97 105.6 249.5 105.59 249.53 106.44 252.33 104.85 252.56 104.85 249.67 104.81 249.66 102.81 251.76 101.84 250.51 104.42 249.07" clip-path="url(#SVGID_2_)"/><path d="m88.148 230.2c0.584 0.063 1.729 0.43 2.999 1.218 3.313 2.055 4.041 5.379 2.062 8.568-2.132 3.439-5.82 4.025-9.01 2.046-1.255-0.776-1.975-1.588-2.237-2.029l1.344-1.269c0.362 0.525 0.944 1.144 1.795 1.671 2.121 1.316 4.482 0.936 6.036-1.573 1.433-2.309 1.003-4.591-1.304-6.021-0.76-0.471-1.66-0.814-2.307-0.915z" clip-path="url(#SVGID_2_)"/><polygon points="74.43 228.4 71.305 232.2 69.574 230.78 77.375 221.28 79.107 222.71 75.669 226.89 79.683 230.19 83.121 226 84.854 227.43 77.052 236.92 75.32 235.5 78.445 231.7" clip-path="url(#SVGID_2_)"/><path d="m65.004 226.16c-0.707-0.514-1.633-1.342-2.517-2.286-1.211-1.291-1.808-2.355-1.876-3.44-0.049-0.879 0.314-1.744 1.086-2.467 1.156-1.085 2.677-1.036 3.767-0.459l0.04-0.037c-0.371-0.877-0.108-1.848 0.557-2.871 0.843-1.34 1.655-2.552 1.841-3.049l1.57 1.676c-0.142 0.383-0.661 1.294-1.555 2.581-0.92 1.363-0.906 2.124-0.06 3.08l0.772 0.825 3.685-3.454 1.52 1.623zm2.431-5.325-0.911-0.971c-1.035-1.104-2.256-1.234-3.147-0.399-0.971 0.911-0.801 2.025 0.198 3.089 0.485 0.52 0.837 0.815 1.026 0.938z" clip-path="url(#SVGID_2_)"/><rect transform="matrix(-.7917 .6109 -.6109 -.7917 236.11 341.75)" x="53.652" y="210.01" width="12.285" height="2.242" clip-path="url(#SVGID_2_)"/><path d="m58.966 203.79c-0.027-0.825-0.316-1.959-0.934-2.928-0.762-1.2-1.762-1.516-2.609-0.978-0.783 0.499-0.913 1.316-0.558 2.928 0.482 2.113 0.269 3.783-1.224 4.732-1.707 1.087-3.884 0.483-5.323-1.778-0.714-1.122-0.987-2.095-1.053-2.81l1.807-0.521c0.044 0.512 0.212 1.421 0.83 2.39 0.762 1.199 1.716 1.306 2.331 0.915 0.8-0.509 0.788-1.344 0.445-3.072-0.468-2.229-0.108-3.668 1.384-4.618 1.677-1.066 3.925-0.725 5.618 1.937 0.705 1.107 1.121 2.441 1.13 3.235z" clip-path="url(#SVGID_2_)"/><polygon points="44.328 198.68 40.267 190.34 41.956 189.52 43.502 192.7 52.86 188.14 53.842 190.16 44.483 194.71 46.016 197.86" clip-path="url(#SVGID_2_)"/><polygon points="47.421 179.9 45.698 175.02 47.435 174.41 49.905 181.4 38.318 185.5 35.939 178.76 37.675 178.14 39.308 182.77 42.297 181.71 40.757 177.35 42.477 176.74 44.019 181.1" clip-path="url(#SVGID_2_)"/><polygon points="43.907 168.42 42.764 163.5 44.592 163.08 46.244 170.18 34.279 172.96 33.772 170.78" clip-path="url(#SVGID_2_)"/><rect transform="matrix(-.9904 .1382 -.1382 -.9904 97.04 310.69)" x="31.588" y="157.6" width="12.284" height="2.242" clip-path="url(#SVGID_2_)"/><path d="m30.716 149.99-0.126-2.237 7.954-0.451c3.385-0.192 4.607 1.382 4.742 3.803 0.036 0.637-0.028 1.408-0.182 1.909l-1.819-0.17c0.107-0.372 0.17-0.868 0.141-1.396-0.072-1.274-0.699-2.023-2.828-1.903z" clip-path="url(#SVGID_2_)"/><path d="m30.479 141.52 0.115-2.222 5.646 0.293 3e-3 -0.054c-0.459-0.316-0.879-0.648-1.283-0.961l-4.15-3.448 0.144-2.75 5.006 4.496 7.282-4.132-0.135 2.622-5.807 3.168 1.253 1.179 4.317 0.224-0.116 2.222z" clip-path="url(#SVGID_2_)"/><polygon points="42.31 126.7 43.179 121.59 44.996 121.9 43.75 129.22 31.632 127.16 32.833 120.11 34.647 120.42 33.824 125.26 36.952 125.79 37.73 121.22 39.528 121.53 38.75 126.1" clip-path="url(#SVGID_2_)"/><polygon points="39.991 105.37 40.475 102.53 41.955 103.04 40.604 105.6 40.655 105.62 43.373 104.58 43.668 106.16 40.769 106.3 40.772 106.34 42.964 108.26 41.752 109.24 40.238 106.77 40.186 106.75 39.704 109.54 38.222 109.02 39.579 106.56 39.543 106.55 36.792 107.52 36.489 105.95 39.374 105.81 39.386 105.78 37.189 103.88 38.396 102.85 39.956 105.36" clip-path="url(#SVGID_2_)"/><path d="m51.9 94.946c0.709-0.422 1.563-1.221 2.115-2.229 0.685-1.247 0.479-2.275-0.4-2.757-0.816-0.447-1.593-0.167-2.835 0.921-1.621 1.44-3.188 2.057-4.737 1.207-1.776-0.974-2.295-3.172-1.006-5.523 0.639-1.167 1.361-1.874 1.955-2.276l1.328 1.332c-0.427 0.286-1.143 0.871-1.695 1.878-0.685 1.247-0.318 2.134 0.322 2.485 0.831 0.455 1.557 0.043 2.905-1.089 1.731-1.486 3.164-1.863 4.715-1.012 1.743 0.956 2.526 3.091 1.01 5.856-0.632 1.151-1.6 2.16-2.293 2.549z" clip-path="url(#SVGID_2_)"/><polygon points="49.32 79.662 54.68 72.09 56.213 73.175 54.169 76.061 62.663 82.073 61.368 83.903 52.874 77.891 50.853 80.747" clip-path="url(#SVGID_2_)"/><path d="m59.537 66.288 5.277 4.842c1.774 1.625 3.27 1.638 4.293 0.524 1.096-1.196 0.93-2.659-0.842-4.285l-5.279-4.842 1.515-1.652 5.171 4.743c2.794 2.563 2.712 5.133 0.716 7.309-1.921 2.095-4.335 2.38-7.182-0.232l-5.185-4.755z" clip-path="url(#SVGID_2_)"/><path d="m69.418 56.424c0.681-0.75 1.569-1.623 2.596-2.469 1.775-1.46 3.286-2.091 4.762-2.077 1.544-0.018 3.046 0.659 4.367 2.264 1.402 1.704 1.857 3.432 1.628 4.991-0.237 1.635-1.385 3.311-3.229 4.83-1 0.822-1.807 1.392-2.442 1.796zm8.359 6.628c0.273-0.154 0.642-0.456 0.992-0.746 2.265-1.839 2.571-4.193 0.589-6.601-1.7-2.095-3.908-2.31-6.075-0.526-0.549 0.452-0.896 0.808-1.102 1.073z" clip-path="url(#SVGID_2_)"/><polygon points="89.713 53.947 94.09 51.183 95.073 52.74 88.798 56.701 82.238 46.309 88.282 42.494 89.265 44.051 85.118 46.67 86.811 49.352 90.728 46.88 91.701 48.422 87.784 50.894" clip-path="url(#SVGID_2_)"/><path d="m98.838 50.623-5.204-11.129 2.328-1.089 5.104 3.428c1.306 0.899 2.568 1.878 3.644 2.844l0.033-0.015c-0.843-1.417-1.55-2.838-2.344-4.539l-1.815-3.88 1.883-0.88 5.205 11.129-2.113 0.988-5.2-3.545c-1.282-0.89-2.642-1.904-3.773-2.904l-0.059 0.048c0.755 1.397 1.475 2.851 2.332 4.684l1.861 3.979z" clip-path="url(#SVGID_2_)"/><polygon points="107.47 33.415 116.31 30.579 116.88 32.367 113.51 33.447 116.69 43.36 114.56 44.045 111.38 34.133 108.04 35.203" clip-path="url(#SVGID_2_)"/><polygon points="125.64 39.145 130.71 38.133 131.07 39.938 123.8 41.388 121.4 29.34 128.4 27.943 128.76 29.749 123.96 30.707 124.58 33.817 129.12 32.913 129.47 34.7 124.93 35.604" clip-path="url(#SVGID_2_)"/><path d="m135.34 39.318-0.843-12.253 2.564-0.178 3.525 5.037c0.894 1.309 1.719 2.677 2.373 3.965l0.036-2e-3c-0.275-1.625-0.421-3.205-0.55-5.077l-0.293-4.273 2.073-0.142 0.843 12.253-2.328 0.161-3.572-5.179c-0.874-1.292-1.777-2.728-2.472-4.068l-0.072 0.023c0.201 1.575 0.349 3.191 0.487 5.209l0.303 4.381z" clip-path="url(#SVGID_2_)"/><polygon points="160.67 30.139 163.55 29.985 163.37 31.543 160.58 30.789 160.57 30.843 162.19 33.262 160.71 33.904 159.94 31.103 159.9 31.117 158.52 33.676 157.28 32.713 159.36 30.69 159.37 30.635 156.55 30.778 156.72 29.22 159.42 29.999 159.42 29.963 157.87 27.496 159.33 26.853 160.1 29.635 160.14 29.64 161.51 27.078 162.78 28.028 160.68 30.103" clip-path="url(#SVGID_2_)"/><path d="m174.9 42.385-0.468-12.903 2.35 0.666 0.085 5.841c0.032 1.621 0.048 3.103-0.062 4.625l0.034 0.01c0.715-1.313 1.561-2.627 2.425-3.935l3.252-4.913 2.297 0.652-7.441 10.659z" clip-path="url(#SVGID_2_)"/><polygon points="187.7 44.757 192.47 46.758 191.76 48.456 184.92 45.588 189.67 34.255 196.26 37.017 195.55 38.716 191.02 36.821 189.8 39.745 194.07 41.536 193.36 43.217 189.09 41.427" clip-path="url(#SVGID_2_)"/><path d="m201.65 39.85c0.83 0.279 1.962 0.795 3.089 1.432 1.54 0.871 2.428 1.709 2.816 2.725 0.309 0.824 0.22 1.758-0.301 2.679-0.782 1.381-2.247 1.787-3.461 1.562l-0.026 0.047c0.615 0.726 0.654 1.733 0.324 2.907-0.405 1.531-0.819 2.931-0.848 3.46l-1.999-1.131c0.021-0.407 0.244-1.433 0.713-2.928 0.474-1.576 0.232-2.298-0.859-2.959l-0.985-0.557-2.487 4.397-1.936-1.096zm-0.728 5.809 1.159 0.655c1.317 0.745 2.521 0.505 3.123-0.558 0.654-1.159 0.16-2.172-1.109-2.89-0.619-0.351-1.043-0.527-1.26-0.588z" clip-path="url(#SVGID_2_)"/><polygon points="209.51 56.778 213.68 59.839 212.6 61.324 206.61 56.938 213.88 47.028 219.64 51.252 218.55 52.737 214.6 49.838 212.72 52.396 216.45 55.134 215.38 56.604 211.64 53.868" clip-path="url(#SVGID_2_)"/><path d="m215.94 64.048 8.456-8.918 1.865 1.768-1.322 6.007c-0.359 1.544-0.809 3.079-1.313 4.434l0.025 0.025c1.011-1.304 2.075-2.48 3.367-3.843l2.949-3.11 1.509 1.43-8.456 8.919-1.694-1.606 1.397-6.138c0.358-1.519 0.806-3.156 1.32-4.575l-0.063-0.038c-1.025 1.214-2.115 2.417-3.508 3.886l-3.023 3.189z" clip-path="url(#SVGID_2_)"/><rect transform="matrix(.7606 -.6492 .6492 .7606 9.1093 167.54)" x="225.59" y="70.297" width="12.284" height="2.242" clip-path="url(#SVGID_2_)"/><path d="m237.02 87.866c-0.686-0.479-1.885-1.513-2.805-2.848-1.179-1.711-1.643-3.317-1.388-4.907 0.234-1.49 1.218-2.921 2.748-3.975 3.223-2.198 6.824-1.338 9.132 2.009 0.856 1.245 1.274 2.396 1.369 3.016l-1.765 0.619c-0.127-0.731-0.412-1.53-1.146-2.596-1.491-2.161-3.811-2.798-6.167-1.174-2.295 1.582-2.689 3.933-1.242 6.034 0.466 0.675 0.888 1.093 1.158 1.261l2.535-1.747-1.23-1.786 1.456-1.003 2.461 3.572z" clip-path="url(#SVGID_2_)"/><rect transform="matrix(.8777 -.4791 .4791 .8777 -13.372 128.33)" x="238.65" y="89.248" width="12.29" height="2.244" clip-path="url(#SVGID_2_)"/><path d="m242.27 98.7 11.342-4.734 0.99 2.373-3.641 4.958c-0.953 1.267-1.985 2.488-2.996 3.523l0.015 0.033c1.451-0.783 2.901-1.429 4.635-2.152l3.954-1.65 0.801 1.918-11.342 4.735-0.898-2.154 3.761-5.049c0.943-1.243 2.014-2.56 3.062-3.649l-0.045-0.06c-1.429 0.696-2.913 1.354-4.781 2.134l-4.055 1.692z" clip-path="url(#SVGID_2_)"/><path d="m250.64 121.76c-0.48-0.685-1.256-2.065-1.668-3.635-0.526-2.011-0.416-3.68 0.364-5.091 0.729-1.322 2.143-2.332 3.942-2.803 3.78-0.971 6.876 1.066 7.906 5 0.383 1.465 0.383 2.689 0.261 3.306l-1.87-0.02c0.129-0.731 0.134-1.58-0.195-2.833-0.665-2.54-2.63-3.93-5.4-3.205-2.699 0.706-3.87 2.785-3.225 5.255 0.208 0.794 0.462 1.331 0.659 1.581l2.981-0.781-0.55-2.099 1.711-0.448 1.1 4.199z" clip-path="url(#SVGID_2_)"/><polygon points="261.28 135.34 261.97 138.14 260.41 138.26 260.62 135.38 260.57 135.38 258.5 137.42 257.59 136.08 260.2 134.81 260.18 134.77 257.4 133.88 258.12 132.5 260.5 134.16 260.55 134.16 259.89 131.41 261.45 131.29 261.19 134.09 261.22 134.09 263.36 132.1 264.26 133.42 261.67 134.69 261.67 134.73 264.44 135.6 263.75 137.02 261.32 135.34" clip-path="url(#SVGID_2_)"/><polygon points="253.69 151.86 253.22 157.02 251.39 156.85 252.06 149.46 264.3 150.58 263.65 157.7 261.81 157.53 262.26 152.65 259.1 152.36 258.68 156.97 256.86 156.8 257.29 152.19" clip-path="url(#SVGID_2_)"/><path d="m250.78 161.12 11.997 2.636-0.55 2.51-5.826 1.968c-1.508 0.489-3.053 0.896-4.472 1.163l-8e-3 0.035c1.636 0.191 3.192 0.496 5.026 0.899l4.183 0.919-0.445 2.029-11.998-2.636 0.5-2.278 5.976-1.972c1.485-0.477 3.118-0.938 4.6-1.229l-2e-3 -0.075c-1.567-0.251-3.161-0.563-5.137-0.997l-4.29-0.942z" clip-path="url(#SVGID_2_)"/><path d="m249.55 176.18c-0.632 0.528-1.349 1.455-1.734 2.537-0.476 1.341-0.109 2.321 0.836 2.658 0.877 0.312 1.6-0.09 2.651-1.36 1.371-1.681 2.818-2.539 4.485-1.947 1.907 0.678 2.771 2.765 1.873 5.291-0.445 1.254-1.045 2.066-1.567 2.558l-1.524-1.103c0.376-0.351 0.99-1.041 1.375-2.123 0.476-1.341-0.026-2.158-0.713-2.403-0.894-0.317-1.545 0.206-2.695 1.539-1.471 1.742-2.826 2.343-4.492 1.751-1.874-0.666-2.987-2.647-1.933-5.621 0.441-1.237 1.236-2.386 1.858-2.881z" clip-path="url(#SVGID_2_)"/><path d="m239.4 194.52c7e-3 -0.588 0.266-1.763 0.931-3.1 1.737-3.491 4.979-4.524 8.341-2.853 3.621 1.802 4.549 5.419 2.876 8.778-0.656 1.322-1.397 2.113-1.813 2.416l-1.388-1.219c0.488-0.409 1.05-1.045 1.496-1.943 1.112-2.234 0.513-4.548-2.131-5.862-2.431-1.21-4.663-0.57-5.871 1.861-0.398 0.8-0.656 1.729-0.696 2.382z" clip-path="url(#SVGID_2_)"/><polygon points="238.88 208.34 242.96 211.1 241.7 212.96 231.52 206.07 232.78 204.21 237.27 207.24 240.18 202.94 235.69 199.91 236.95 198.05 247.13 204.93 245.87 206.79 241.79 204.03" clip-path="url(#SVGID_2_)"/><polygon points="228.34 212.8 224.92 216.68 223.54 215.47 228.44 209.9 237.67 218.01 232.95 223.38 231.56 222.16 234.8 218.48 232.42 216.39 229.36 219.86 227.99 218.66 231.05 215.18" clip-path="url(#SVGID_2_)"/><path d="m228.55 227.67c-0.655 0.772-1.512 1.676-2.511 2.557-1.723 1.521-3.213 2.204-4.688 2.24-1.542 0.071-3.067-0.554-4.442-2.112-1.46-1.654-1.974-3.366-1.798-4.932 0.18-1.644 1.269-3.358 3.06-4.939 0.972-0.856 1.759-1.454 2.378-1.881zm-8.585-6.338c-0.269 0.164-0.624 0.479-0.966 0.779-2.2 1.917-2.426 4.281-0.361 6.619 1.772 2.037 3.986 2.175 6.093 0.316 0.533-0.471 0.865-0.838 1.064-1.11z" clip-path="url(#SVGID_2_)"/><polygon points="208.33 230.85 204.05 233.76 203.01 232.24 209.15 228.07 216.06 238.24 210.15 242.25 209.11 240.73 213.17 237.97 211.39 235.35 207.55 237.95 206.53 236.44 210.36 233.84" clip-path="url(#SVGID_2_)"/><polygon points="194.57 247.29 192.19 248.91 191.53 247.49 194.32 246.69 194.29 246.64 191.66 245.4 192.6 244.09 194.7 246.09 194.73 246.06 194.59 243.15 196.14 243.34 195.41 246.14 195.43 246.2 197.77 244.62 198.43 246.04 195.72 246.77 195.73 246.8 198.34 248.11 197.42 249.42 195.32 247.43 195.29 247.45 195.44 250.35 193.86 250.19 194.59 247.33" clip-path="url(#SVGID_2_)"/><path d="m124.4 245.34 1.752 14.598-3.055-0.741-0.288-3.227-5.004-1.216-1.773 2.725-2.962-0.72 8.313-12.152zm-1.826 8.25-0.494-5.32-0.037-0.01-2.937 4.488z" clip-path="url(#SVGID_2_)"/><polygon points="139.81 259.02 139.52 261.56 129.84 260.45 131.4 246.77 134.41 247.11 133.14 258.26" clip-path="url(#SVGID_2_)"/><path d="m149.82 247.92c0.861-9e-3 1.596 0.11 2.203 0.355 0.605 0.244 1.102 0.57 1.485 0.978 0.383 0.407 0.664 0.873 0.843 1.4 0.18 0.524 0.271 1.07 0.277 1.636 6e-3 0.553-0.076 1.097-0.244 1.633-0.168 0.535-0.439 1.011-0.814 1.427-0.375 0.414-0.864 0.751-1.465 1.007-0.603 0.258-1.334 0.39-2.194 0.398l-3.184 0.032 0.05 4.938-3.028 0.03-0.14-13.771zm-0.763 6.49c0.347-4e-3 0.682-0.032 1.002-0.087 0.321-0.055 0.604-0.158 0.846-0.31 0.243-0.148 0.437-0.359 0.582-0.631 0.146-0.272 0.217-0.627 0.211-1.063-4e-3 -0.438-0.082-0.79-0.232-1.06-0.15-0.267-0.35-0.475-0.595-0.621-0.246-0.145-0.53-0.241-0.852-0.289-0.321-0.049-0.657-0.07-1.004-0.066l-2.354 0.023 0.043 4.128z" clip-path="url(#SVGID_2_)"/><polygon points="166.5 251.63 165.72 246.4 168.72 245.95 170.74 259.58 167.75 260.02 166.88 254.15 161.36 254.97 162.24 260.84 159.24 261.29 157.22 247.66 160.21 247.22 160.99 252.45" clip-path="url(#SVGID_2_)"/><path d="m178.61 243.24 8.84 11.749-3.015 0.891-1.869-2.646-4.938 1.458-0.167 3.246-2.923 0.864 1.093-14.683zm2.561 8.053-3.098-4.354-0.036 0.011-0.289 5.354z" clip-path="url(#SVGID_2_)"/></g></svg>
