<svg xmlns="http://www.w3.org/2000/svg" xmlns:svg="http://www.w3.org/2000/svg" id="svg6" width="194.002" height="194.004" enable-background="new 0 0 217.667 217.666" version="1.1" viewBox="0 0 194.002 194.004" xml:space="preserve"><circle id="circle2" cx="97.001" cy="97.002" r="94.111" fill="#ffd218"/><path id="path4" fill="#010202" d="M 97.000001,0 87.062,0.469 l -9.625,1.562 -9.312,2.313 -8.844,3.25 -8.531,4.031 -7.906,4.969 -7.469,5.594 -6.969,6.218 -6.219,6.813 -5.593,7.469 -4.969,8.062 -4.031,8.375 -3.25,9 L 2.031,77.281 0.469,86.906 0,96.844001 0.469,106.782 l 1.562,9.625 2.313,9.313 3.25,9 4.031,8.531 4.969,7.906 5.593,7.469 6.219,6.969 6.969,6.219 7.469,5.594 7.906,4.813 8.531,4.188 8.844,3.25 9.312,2.313 9.625,1.563 9.938001,0.469 9.936999,-0.469 9.625,-1.563 9.313,-2.313 8.844,-3.25 8.531,-4.188 7.906,-4.813 7.469,-5.594 6.969,-6.219 6.219,-6.969 5.594,-7.469 4.969,-7.906 4.031,-8.531 3.25,-9 2.313,-9.313 1.563,-9.625 0.469,-9.937999 -0.469,-9.938001 -1.563,-9.625 -2.313,-9.156 -3.25,-9 -4.031,-8.375 -4.969,-8.062 -5.594,-7.469 -6.219,-6.813 -6.969,-6.218 -7.469,-5.594 -7.906,-4.969 -8.531,-4.031 -8.844,-3.25 -9.313,-2.313 -9.625,-1.562 z m -0.625,7.125 3.562,4.375 3.437999,4.781 3.094,4.813 2.781,5.281 2.656,5.281 2.469,5.594 2.188,5.75 2,5.875 0.313,1.031 2.813,2.094 2.937,2.469 2.938,2.5 2.812,2.781 2.625,2.938 2.813,3.125 2.468,3.406 2.469,3.406 2.344,3.719 2.188,4.062 2.157,4.032 0.5,1.062 1.062,-1.844 3.094,-6.218 2.47,-6.219 2.187,-5.719 1.563,-5.281 0.906,-4.813 0.469,-4.187 -0.156,6.187 -0.313,6.219 -0.594,5.75 -0.781,5.75 -0.938,5.406 -1.25,5.438 -1.219,4.969001 -1.563,4.969 -0.375,1.031 0.375,1 1.563,4.968999 1.219,5.125 1.25,5.25 0.938,5.438 0.781,5.75 0.594,5.75 0.313,6.188 0.156,6.219 -0.469,-4.188 -0.906,-4.813 -1.563,-5.281 -2.187,-5.75 -2.47,-6.031 -3.094,-6.219 -1.094,-1.844 h -0.063 l -0.405,0.906 -2.157,4.188 -2.188,3.875 -2.344,3.75 -2.469,3.563 -2.468,3.25 -2.813,3.281 -2.625,2.938 -2.812,2.781 -2.938,2.5 -2.937,2.313 -2.595,2.031 -0.531,1.844 -2,5.906 -2.188,5.75 -2.469,5.438 -2.656,5.438 -2.781,4.938 -3.094,4.969 -3.437999,4.531 -3.562,4.188 -3.094,-4.188 -3.094,-4.531 -2.812001,-4.969 -2.625,-5.094 -2.5,-5.281 -2.313,-5.594 -0.875,-2.25 -0.843,-0.094 -5.282,-1.375 -5.125,-1.875 -4.968,-2.469 -4.969,-2.969 -4.656,-3.406 -4.344,-4.031 -4.031,-4.188 -3.719,-4.656 -3.25,-4.969 -2.813,-5.125 -2.312,-5.438 -1.563,-5.749 -1.062,-5.719 -0.313,-5.906999 2.938,4.812999 3.406,4.656 3.563,4.188 3.75,3.875 4.031,3.563 4.187,3.28 4.188,2.782 4.187,2.625 4.344,2.188 4.188,1.875 3.656,1.156 -1,-4.438 -1.094,-6.188 -0.781,-6.062 -0.625,-6.063 -0.469,-6.031 -0.156,-5.905999 0.156,-6.063 0.469,-6.187001 0.625,-6.219 0.937,-6.375 1.094,-6.5 0.875,-4.125 -3.687,1.312 -4.188,1.719 -4.344,2.188 -4.187,2.625 -4.188,2.937 -4.187,3.125 -4.031,3.563 -3.75,4.031 -3.563,4.187 -3.406,4.500001 -2.938,4.813 0.313,-5.906 1.062,-5.719001 1.563,-5.594 2.312,-5.437 2.813,-5.282 3.25,-4.812 3.719,-4.656 4.031,-4.344 4.344,-3.875 4.656,-3.406 4.969,-2.969 4.968,-2.469 5.125,-1.875 5.282,-1.375 0.718,-0.094 1.469,-3.968 2.313,-5.563 2.5,-5.281 2.625,-4.813 2.781001,-4.656 2.812,-4.031 z M 78.938,39.031 l -0.718,1.938 -2,6.062 -1.719,6.188 -1.719,6.375 -0.5,2.25 0.656,-0.219 4.032,-1.094 4.031,-0.625 3.75,-0.312 3.562001,0.156 3.25,0.469 7.75,2.312 7.312999,3.282 6.969,4.031 6.375,4.656 4.72,4 -0.688,-5.406 -0.937,-6.219 -1.375,-6.031 -1.407,-6.063 -1.406,-4.875 -0.156,-0.093 -2.938,-2 -3.094,-1.719 -2.969,-1.719 -3.094,-1.375 -3.094,-1.25 -3.125,-0.937 -2.936999,-0.938 -3.094,-0.625 -2.969,-0.437 -2.937,-0.313 H 83.345 Z m 45.75,39.469 0.093,0.656 0.625,6.063 0.313,6.031001 0.156,6.063 -0.156,5.905999 -0.313,6.031 -0.625,6.063 1.25,-1.094 5.563,-5.594 4.969,-6.031 4.188,-5.593999 -4.188,-5.594 -4.969,-6.062001 -5.563,-5.719 z m 16.062,18.500001 0.031,0.032 v -0.063 z m -15.969,18.312999 -4.813,4.187 -6.375,4.657 -6.969,3.875 -7.312999,3.25 -7.75,2.344 -3.25,0.469 -3.562001,0.156 -3.75,-0.313 -4.031,-0.625 -4.032,-1.094 -0.687,-0.219 0.375,1.625 1.562,6.063 1.719,6.063 1.844,5.875 1.312,3.344 4.282,0.531 h 5.125001 l 2.937,-0.313 2.969,-0.469 3.094,-0.594 2.936999,-0.938 3.125,-0.938 3.094,-1.25 3.094,-1.375 2.969,-1.719 3.094,-1.875 2.938,-1.844 0.375,-0.313 1.188,-4.031 1.407,-6.063 1.375,-6.219 0.937,-6.031 z m 27.719,-18.374999 -0.094,-0.25 v 0.5 z"/></svg>