<svg xmlns="http://www.w3.org/2000/svg" xmlns:xlink="http://www.w3.org/1999/xlink" id="Layer_1" width="233.966" height="235.363" x="0" y="0" enable-background="new 0 0 233.966 235.363" version="1.1" viewBox="0 0 233.966 235.363" xml:space="preserve"><g><defs><rect id="SVGID_1_" width="293.041" height="286.96" x="-30.479" y="-26.396"/></defs><clipPath id="SVGID_2_"><use overflow="visible" xlink:href="#SVGID_1_"/></clipPath><path fill="#FFF" d="M117.035,20.083l-9.938,0.469l-9.625,1.562l-9.312,2.313l-8.844,3.25 l-8.531,4.031l-7.906,4.969l-7.469,5.594l-6.969,6.218l-6.219,6.813l-5.593,7.469l-4.969,8.062l-4.031,8.375l-3.25,9l-2.313,9.156 l-1.562,9.625l-0.469,9.938l0.469,9.938l1.562,9.625l2.313,9.313l3.25,9l4.031,8.531l4.969,7.906l5.593,7.469l6.219,6.969 l6.969,6.219l7.469,5.594l7.906,4.813l8.531,4.188l8.844,3.25l9.312,2.313l9.625,1.563l9.938,0.469l9.937-0.469l9.625-1.563 l9.313-2.313l8.844-3.25l8.531-4.188l7.906-4.813l7.469-5.594l6.969-6.219l6.219-6.969l5.594-7.469l4.969-7.906l4.031-8.531l3.25-9 l2.313-9.313l1.563-9.625l0.469-9.938l-0.469-9.938l-1.563-9.625l-2.313-9.156l-3.25-9l-4.031-8.375l-4.969-8.062l-5.594-7.469 l-6.219-6.813l-6.969-6.218l-7.469-5.594l-7.906-4.969l-8.531-4.031l-8.844-3.25l-9.313-2.313l-9.625-1.562L117.035,20.083z M116.41,27.208l3.562,4.375l3.438,4.781l3.094,4.813l2.781,5.281l2.656,5.281l2.469,5.594l2.188,5.75l2,5.875l0.313,1.031 l2.813,2.094l2.937,2.469l2.938,2.5l2.812,2.781l2.625,2.938l2.813,3.125l2.468,3.406l2.469,3.406l2.344,3.719l2.188,4.062 l2.157,4.032l0.5,1.062l1.062-1.844l3.094-6.218l2.47-6.219l2.187-5.719l1.563-5.281l0.906-4.813l0.469-4.187l-0.156,6.187 l-0.313,6.219l-0.594,5.75l-0.781,5.75l-0.938,5.406l-1.25,5.438l-1.219,4.969l-1.563,4.969l-0.375,1.031l0.375,1l1.563,4.969 l1.219,5.125l1.25,5.25l0.938,5.438l0.781,5.75l0.594,5.75l0.313,6.188l0.156,6.219l-0.469-4.188l-0.906-4.813l-1.563-5.281 l-2.187-5.75l-2.47-6.031l-3.094-6.219l-1.094-1.844h-0.063l-0.405,0.906l-2.157,4.188l-2.188,3.875l-2.344,3.75l-2.469,3.563 l-2.468,3.25l-2.813,3.281l-2.625,2.938l-2.812,2.781l-2.938,2.5l-2.937,2.313l-2.595,2.031l-0.531,1.844l-2,5.906l-2.188,5.75 l-2.469,5.438l-2.656,5.438l-2.781,4.938l-3.094,4.969l-3.438,4.531l-3.562,4.188l-3.094-4.188l-3.094-4.531l-2.812-4.969 l-2.625-5.094l-2.5-5.281l-2.313-5.594l-0.875-2.25l-0.843-0.094l-5.282-1.375l-5.125-1.875l-4.968-2.469l-4.969-2.969 l-4.656-3.406l-4.344-4.031l-4.031-4.188l-3.719-4.656l-3.25-4.969l-2.813-5.125l-2.312-5.438l-1.563-5.749l-1.062-5.719 l-0.313-5.907l2.938,4.813l3.406,4.656l3.563,4.188l3.75,3.875l4.031,3.563l4.187,3.28l4.188,2.782l4.187,2.625l4.344,2.188 l4.188,1.875l3.656,1.156l-1-4.438l-1.094-6.188l-0.781-6.062l-0.625-6.063l-0.469-6.031l-0.156-5.906l0.156-6.063l0.469-6.187 l0.625-6.219l0.937-6.375l1.094-6.5l0.875-4.125l-3.687,1.312l-4.188,1.719l-4.344,2.188l-4.187,2.625l-4.188,2.937l-4.187,3.125 l-4.031,3.563l-3.75,4.031l-3.563,4.187l-3.406,4.5l-2.938,4.813l0.313-5.906l1.062-5.719l1.563-5.594l2.312-5.437l2.813-5.282 l3.25-4.812l3.719-4.656l4.031-4.344l4.344-3.875l4.656-3.406l4.969-2.969l4.968-2.469l5.125-1.875l5.282-1.375l0.718-0.094 l1.469-3.968l2.313-5.563l2.5-5.281l2.625-4.813l2.781-4.656l2.812-4.031L116.41,27.208z M98.972,59.113l-0.718,1.938l-2,6.062 l-1.719,6.188l-1.719,6.375l-0.5,2.25l0.656-0.219l4.032-1.094l4.031-0.625l3.75-0.312l3.562,0.156l3.25,0.469l7.75,2.312 l7.313,3.282l6.969,4.031l6.375,4.656l4.72,4l-0.688-5.406l-0.937-6.219l-1.375-6.031l-1.407-6.063l-1.406-4.875l-0.156-0.093 l-2.938-2l-3.094-1.719l-2.969-1.719l-3.094-1.375l-3.094-1.25l-3.125-0.937l-2.937-0.938l-3.094-0.625l-2.969-0.437l-2.937-0.313 h-5.125L98.972,59.113z M144.723,98.583l0.093,0.656l0.625,6.063l0.313,6.031l0.156,6.063l-0.156,5.906l-0.313,6.031l-0.625,6.063 l1.25-1.094l5.563-5.594l4.969-6.031l4.188-5.594l-4.188-5.594l-4.969-6.062l-5.563-5.719L144.723,98.583z M160.784,117.083 l0.031,0.032v-0.063L160.784,117.083z M144.815,135.396l-4.813,4.187l-6.375,4.657l-6.969,3.875l-7.313,3.25l-7.75,2.344 l-3.25,0.469l-3.562,0.156l-3.75-0.313l-4.031-0.625l-4.032-1.094l-0.687-0.219l0.375,1.625l1.562,6.063l1.719,6.063l1.844,5.875 l1.312,3.344l4.282,0.531h5.125l2.937-0.313l2.969-0.469l3.094-0.594l2.937-0.938l3.125-0.938l3.094-1.25l3.094-1.375l2.969-1.719 l3.094-1.875l2.938-1.844l0.375-0.313l1.188-4.031l1.407-6.063l1.375-6.219l0.937-6.031L144.815,135.396z M172.534,117.021 l-0.094-0.25v0.5L172.534,117.021z" clip-path="url(#SVGID_2_)"/><polygon fill="#FFF" points="71.361 224.112 73.94 222.671 73.955 222.637 71.137 222.021 71.719 220.563 74.215 222.034 74.236 221.983 73.318 219.221 74.921 218.997 74.917 221.901 74.958 221.898 76.974 219.8 77.906 221.056 75.363 222.455 75.342 222.505 78.103 223.118 77.52 224.574 75.122 223.104 75.109 223.138 75.955 225.932 74.371 226.162 74.367 223.273 74.334 223.26 72.333 225.365" clip-path="url(#SVGID_2_)"/><path fill="#FFF" d="M57.669,203.808c0.584,0.063,1.729,0.43,2.999,1.218 c3.313,2.055,4.041,5.379,2.062,8.568c-2.132,3.439-5.82,4.025-9.01,2.046c-1.255-0.776-1.975-1.588-2.237-2.029l1.344-1.269 c0.362,0.525,0.944,1.144,1.795,1.671c2.121,1.316,4.482,0.936,6.036-1.573c1.433-2.309,1.003-4.591-1.304-6.021 c-0.76-0.471-1.66-0.814-2.307-0.915L57.669,203.808z" clip-path="url(#SVGID_2_)"/><polygon fill="#FFF" points="44.841 209.104 47.966 205.301 43.951 202 40.826 205.805 39.095 204.381 46.896 194.887 48.628 196.312 45.19 200.494 49.204 203.792 52.642 199.609 54.374 201.033 46.573 210.526" clip-path="url(#SVGID_2_)"/><path fill="#FFF" d="M34.525,199.764c-0.707-0.514-1.633-1.342-2.517-2.286 c-1.211-1.291-1.808-2.355-1.876-3.44c-0.049-0.879,0.314-1.744,1.086-2.467c1.156-1.085,2.677-1.036,3.767-0.459l0.04-0.037 c-0.371-0.877-0.108-1.848,0.557-2.871c0.843-1.34,1.655-2.552,1.841-3.049l1.57,1.676c-0.142,0.383-0.661,1.294-1.555,2.581 c-0.92,1.363-0.906,2.124-0.06,3.08l0.772,0.825l3.685-3.454l1.52,1.623L34.525,199.764z M36.955,194.438l-0.911-0.971 c-1.035-1.104-2.256-1.234-3.147-0.399c-0.971,0.911-0.801,2.025,0.198,3.089c0.485,0.52,0.837,0.815,1.026,0.938L36.955,194.438z" clip-path="url(#SVGID_2_)"/><rect width="12.285" height="2.242" x="23.173" y="183.613" fill="#FFF" clip-path="url(#SVGID_2_)" transform="matrix(-0.7917 0.6109 -0.6109 -0.7917 165.3783 313.0803)"/><path fill="#FFF" d="M28.486,177.395c-0.027-0.825-0.316-1.959-0.934-2.928 c-0.762-1.2-1.762-1.516-2.609-0.978c-0.783,0.499-0.913,1.316-0.558,2.928c0.482,2.113,0.269,3.783-1.224,4.732 c-1.707,1.087-3.884,0.483-5.323-1.778c-0.714-1.122-0.987-2.095-1.053-2.81l1.807-0.521c0.044,0.512,0.212,1.421,0.83,2.39 c0.762,1.199,1.716,1.306,2.331,0.915c0.8-0.509,0.788-1.344,0.445-3.072c-0.468-2.229-0.108-3.668,1.384-4.618 c1.677-1.066,3.925-0.725,5.618,1.937c0.705,1.107,1.121,2.441,1.13,3.235L28.486,177.395z" clip-path="url(#SVGID_2_)"/><polygon fill="#FFF" points="14.004 168.316 15.536 171.464 13.848 172.285 9.787 163.942 11.476 163.122 13.023 166.301 22.381 161.745 23.363 163.761" clip-path="url(#SVGID_2_)"/><polygon fill="#FFF" points="11.997 150.344 13.539 154.71 16.942 153.509 15.218 148.627 16.955 148.013 19.425 155.01 7.839 159.101 5.46 152.362 7.195 151.749 8.828 156.374 11.818 155.317 10.277 150.951" clip-path="url(#SVGID_2_)"/><polygon fill="#FFF" points="3.8 146.565 3.293 144.383 13.428 142.023 12.285 137.107 14.113 136.682 15.765 143.782" clip-path="url(#SVGID_2_)"/><rect width="12.284" height="2.242" x="1.109" y="131.2" fill="#FFF" clip-path="url(#SVGID_2_)" transform="matrix(-0.9904 0.1382 -0.1382 -0.9904 32.725 262.3686)"/><path fill="#FFF" d="M0.236,123.591l-0.126-2.237l7.954-0.451c3.385-0.192,4.607,1.382,4.742,3.803 c0.036,0.637-0.028,1.408-0.182,1.909l-1.819-0.17c0.107-0.372,0.17-0.868,0.141-1.396c-0.072-1.274-0.699-2.023-2.828-1.903 L0.236,123.591z" clip-path="url(#SVGID_2_)"/><path fill="#FFF" d="M0,115.126l0.115-2.222l5.646,0.293l0.003-0.054 c-0.459-0.316-0.879-0.648-1.283-0.961l-4.15-3.448l0.144-2.75l5.006,4.496l7.282-4.132l-0.135,2.622l-5.807,3.168l1.253,1.179 l4.317,0.224l-0.116,2.222L0,115.126z" clip-path="url(#SVGID_2_)"/><polygon fill="#FFF" points="9.049 95.133 8.271 99.7 11.831 100.305 12.7 95.199 14.517 95.508 13.271 102.826 1.153 100.764 2.353 93.716 4.168 94.025 3.345 98.862 6.473 99.394 7.251 94.827" clip-path="url(#SVGID_2_)"/><polygon fill="#FFF" points="7.916 76.454 9.476 78.963 9.511 78.976 9.995 76.134 11.475 76.647 10.125 79.208 10.176 79.226 12.893 78.182 13.189 79.77 10.289 79.901 10.293 79.941 12.485 81.859 11.273 82.849 9.759 80.374 9.706 80.355 9.224 83.14 7.742 82.625 9.099 80.164 9.064 80.151 6.313 81.127 6.01 79.556 8.894 79.417 8.906 79.384 6.71 77.482" clip-path="url(#SVGID_2_)"/><path fill="#FFF" d="M21.421,68.55c0.709-0.422,1.563-1.221,2.115-2.229 c0.685-1.247,0.479-2.275-0.4-2.757c-0.816-0.447-1.593-0.167-2.835,0.921c-1.621,1.44-3.188,2.057-4.737,1.207 c-1.776-0.974-2.295-3.172-1.006-5.523c0.639-1.167,1.361-1.874,1.955-2.276l1.328,1.332c-0.427,0.286-1.143,0.871-1.695,1.878 c-0.685,1.247-0.318,2.134,0.322,2.485c0.831,0.455,1.557,0.043,2.905-1.089c1.731-1.486,3.164-1.863,4.715-1.012 c1.743,0.956,2.526,3.091,1.01,5.856c-0.632,1.151-1.6,2.16-2.293,2.549L21.421,68.55z" clip-path="url(#SVGID_2_)"/><polygon fill="#FFF" points="22.395 51.496 20.374 54.352 18.84 53.267 24.201 45.694 25.733 46.78 23.689 49.666 32.184 55.678 30.889 57.508" clip-path="url(#SVGID_2_)"/><path fill="#FFF" d="M29.058,39.892l5.277,4.842c1.774,1.625,3.27,1.638,4.293,0.524 c1.096-1.196,0.93-2.659-0.842-4.285l-5.279-4.842l1.515-1.652l5.171,4.743c2.794,2.563,2.712,5.133,0.716,7.309 c-1.921,2.095-4.335,2.38-7.182-0.232l-5.185-4.755L29.058,39.892z" clip-path="url(#SVGID_2_)"/><path fill="#FFF" d="M38.939,30.029c0.681-0.75,1.569-1.623,2.596-2.469 c1.775-1.46,3.286-2.091,4.762-2.077c1.544-0.018,3.046,0.659,4.367,2.264c1.402,1.704,1.857,3.432,1.628,4.991 c-0.237,1.635-1.385,3.311-3.229,4.83c-1,0.822-1.807,1.392-2.442,1.796L38.939,30.029z M47.298,36.657 c0.273-0.154,0.642-0.456,0.992-0.746c2.265-1.839,2.571-4.193,0.589-6.601c-1.7-2.095-3.908-2.31-6.075-0.526 c-0.549,0.452-0.896,0.808-1.102,1.073L47.298,36.657z" clip-path="url(#SVGID_2_)"/><polygon fill="#FFF" points="61.222 22.026 57.305 24.499 59.234 27.551 63.611 24.787 64.594 26.344 58.319 30.305 51.759 19.914 57.803 16.098 58.786 17.655 54.639 20.274 56.332 22.957 60.249 20.484" clip-path="url(#SVGID_2_)"/><path fill="#FFF" d="M68.358,24.228l-5.204-11.129l2.328-1.089l5.104,3.428 c1.306,0.899,2.568,1.878,3.644,2.844l0.033-0.015c-0.843-1.417-1.55-2.838-2.344-4.539l-1.815-3.88l1.883-0.88l5.205,11.129 l-2.113,0.988l-5.2-3.545c-1.282-0.89-2.642-1.904-3.773-2.904l-0.059,0.048c0.755,1.397,1.475,2.851,2.332,4.684l1.861,3.979 L68.358,24.228z" clip-path="url(#SVGID_2_)"/><polygon fill="#FFF" points="80.898 7.738 77.565 8.808 76.991 7.02 85.828 4.184 86.401 5.972 83.034 7.052 86.214 16.965 84.081 17.65" clip-path="url(#SVGID_2_)"/><polygon fill="#FFF" points="98.992 8.304 94.452 9.209 95.157 12.749 100.233 11.737 100.594 13.543 93.317 14.992 90.917 2.944 97.925 1.547 98.285 3.353 93.476 4.311 94.095 7.421 98.636 6.517" clip-path="url(#SVGID_2_)"/><path fill="#FFF" d="M104.859,12.923L104.017,0.67l2.564-0.178l3.525,5.037 c0.894,1.309,1.719,2.677,2.373,3.965l0.036-0.002c-0.275-1.625-0.421-3.205-0.55-5.077l-0.293-4.273L113.745,0l0.843,12.253 l-2.328,0.161l-3.572-5.179c-0.874-1.292-1.777-2.728-2.472-4.068l-0.072,0.023c0.201,1.575,0.349,3.191,0.487,5.209l0.303,4.381 L104.859,12.923z" clip-path="url(#SVGID_2_)"/><polygon fill="#FFF" points="132.299 1.632 130.196 3.707 130.191 3.743 133.069 3.589 132.895 5.147 130.101 4.393 130.095 4.447 131.713 6.866 130.229 7.508 129.46 4.707 129.423 4.721 128.035 7.28 126.804 6.317 128.883 4.294 128.889 4.239 126.067 4.382 126.241 2.824 128.941 3.604 128.944 3.567 127.389 1.1 128.854 .457 129.624 3.239 129.661 3.244 131.028 .682" clip-path="url(#SVGID_2_)"/><path fill="#FFF" d="M144.424,15.99l-0.468-12.903l2.35,0.666l0.085,5.841 c0.032,1.621,0.048,3.103-0.062,4.625l0.034,0.01c0.715-1.313,1.561-2.627,2.425-3.935l3.252-4.913l2.297,0.652l-7.441,10.659 L144.424,15.99z" clip-path="url(#SVGID_2_)"/><polygon fill="#FFF" points="162.886 16.822 158.614 15.032 157.219 18.362 161.994 20.363 161.281 22.061 154.439 19.193 159.188 7.86 165.78 10.622 165.068 12.321 160.545 10.426 159.319 13.35 163.591 15.141" clip-path="url(#SVGID_2_)"/><path fill="#FFF" d="M171.168,13.455c0.83,0.279,1.962,0.795,3.089,1.432 c1.54,0.871,2.428,1.709,2.816,2.725c0.309,0.824,0.22,1.758-0.301,2.679c-0.782,1.381-2.247,1.787-3.461,1.562l-0.026,0.047 c0.615,0.726,0.654,1.733,0.324,2.907c-0.405,1.531-0.819,2.931-0.848,3.46l-1.999-1.131c0.021-0.407,0.244-1.433,0.713-2.928 c0.474-1.576,0.232-2.298-0.859-2.959l-0.985-0.557l-2.487,4.397l-1.936-1.096L171.168,13.455z M170.439,19.264l1.159,0.655 c1.317,0.745,2.521,0.505,3.123-0.558c0.654-1.159,0.16-2.172-1.109-2.89c-0.619-0.351-1.043-0.527-1.26-0.588L170.439,19.264z" clip-path="url(#SVGID_2_)"/><polygon fill="#FFF" points="184.897 30.209 181.161 27.472 179.028 30.383 183.204 33.444 182.116 34.929 176.131 30.543 183.396 20.633 189.158 24.857 188.07 26.342 184.115 23.443 182.24 26.001 185.975 28.739" clip-path="url(#SVGID_2_)"/><path fill="#FFF" d="M185.457,37.652l8.456-8.918l1.865,1.768l-1.322,6.007 c-0.359,1.544-0.809,3.079-1.313,4.434l0.025,0.025c1.011-1.304,2.075-2.48,3.367-3.843l2.949-3.11l1.509,1.43l-8.456,8.919 l-1.694-1.606l1.397-6.138c0.358-1.519,0.806-3.156,1.32-4.575l-0.063-0.038c-1.025,1.214-2.115,2.417-3.508,3.886l-3.023,3.189 L185.457,37.652z" clip-path="url(#SVGID_2_)"/><rect width="12.284" height="2.242" x="195.114" y="43.901" fill="#FFF" clip-path="url(#SVGID_2_)" transform="matrix(0.7606 -0.6492 0.6492 0.7606 18.9491 141.4337)"/><path fill="#FFF" d="M206.539,61.471c-0.686-0.479-1.885-1.513-2.805-2.848 c-1.179-1.711-1.643-3.317-1.388-4.907c0.234-1.49,1.218-2.921,2.748-3.975c3.223-2.198,6.824-1.338,9.132,2.009 c0.856,1.245,1.274,2.396,1.369,3.016l-1.765,0.619c-0.127-0.731-0.412-1.53-1.146-2.596c-1.491-2.161-3.811-2.798-6.167-1.174 c-2.295,1.582-2.689,3.933-1.242,6.034c0.466,0.675,0.888,1.093,1.158,1.261l2.535-1.747l-1.23-1.786l1.456-1.003l2.461,3.572 L206.539,61.471z" clip-path="url(#SVGID_2_)"/><rect width="12.29" height="2.244" x="208.17" y="62.852" fill="#FFF" clip-path="url(#SVGID_2_)" transform="matrix(0.8777 -0.4791 0.4791 0.8777 -4.451 110.504)"/><path fill="#FFF" d="M211.792,72.305l11.342-4.734l0.99,2.373l-3.641,4.958 c-0.953,1.267-1.985,2.488-2.996,3.523l0.015,0.033c1.451-0.783,2.901-1.429,4.635-2.152l3.954-1.65l0.801,1.918l-11.342,4.735 l-0.898-2.154l3.761-5.049c0.943-1.243,2.014-2.56,3.062-3.649l-0.045-0.06c-1.429,0.696-2.913,1.354-4.781,2.134l-4.055,1.692 L211.792,72.305z" clip-path="url(#SVGID_2_)"/><path fill="#FFF" d="M220.159,95.366c-0.48-0.685-1.256-2.065-1.668-3.635 c-0.526-2.011-0.416-3.68,0.364-5.091c0.729-1.322,2.143-2.332,3.942-2.803c3.78-0.971,6.876,1.066,7.906,5 c0.383,1.465,0.383,2.689,0.261,3.306l-1.87-0.02c0.129-0.731,0.134-1.58-0.195-2.833c-0.665-2.54-2.63-3.93-5.4-3.205 c-2.699,0.706-3.87,2.785-3.225,5.255c0.208,0.794,0.462,1.331,0.659,1.581l2.981-0.781l-0.55-2.099l1.711-0.448l1.1,4.199 L220.159,95.366z" clip-path="url(#SVGID_2_)"/><polygon fill="#FFF" points="233.269 110.627 230.838 108.947 230.803 108.949 231.489 111.75 229.927 111.868 230.146 108.981 230.091 108.985 228.017 111.024 227.11 109.687 229.719 108.411 229.698 108.375 226.926 107.488 227.643 106.101 230.019 107.767 230.072 107.763 229.406 105.016 230.971 104.897 230.706 107.695 230.743 107.693 232.878 105.704 233.781 107.023 231.19 108.298 231.194 108.335 233.966 109.204" clip-path="url(#SVGID_2_)"/><polygon fill="#FFF" points="226.386 130.404 226.808 125.795 223.214 125.466 222.74 130.621 220.906 130.453 221.585 123.064 233.819 124.186 233.168 131.301 231.334 131.134 231.781 126.25 228.623 125.961 228.2 130.571" clip-path="url(#SVGID_2_)"/><path fill="#FFF" d="M220.297,134.729l11.997,2.636l-0.55,2.51l-5.826,1.968 c-1.508,0.489-3.053,0.896-4.472,1.163l-0.008,0.035c1.636,0.191,3.192,0.496,5.026,0.899l4.183,0.919l-0.445,2.029l-11.998-2.636 l0.5-2.278l5.976-1.972c1.485-0.477,3.118-0.938,4.6-1.229l-0.002-0.075c-1.567-0.251-3.161-0.563-5.137-0.997l-4.29-0.942 L220.297,134.729z" clip-path="url(#SVGID_2_)"/><path fill="#FFF" d="M219.073,149.782c-0.632,0.528-1.349,1.455-1.734,2.537 c-0.476,1.341-0.109,2.321,0.836,2.658c0.877,0.312,1.6-0.09,2.651-1.36c1.371-1.681,2.818-2.539,4.485-1.947 c1.907,0.678,2.771,2.765,1.873,5.291c-0.445,1.254-1.045,2.066-1.567,2.558l-1.524-1.103c0.376-0.351,0.99-1.041,1.375-2.123 c0.476-1.341-0.026-2.158-0.713-2.403c-0.894-0.317-1.545,0.206-2.695,1.539c-1.471,1.742-2.826,2.343-4.492,1.751 c-1.874-0.666-2.987-2.647-1.933-5.621c0.441-1.237,1.236-2.386,1.858-2.881L219.073,149.782z" clip-path="url(#SVGID_2_)"/><path fill="#FFF" d="M208.925,168.12c0.007-0.588,0.266-1.763,0.931-3.1 c1.737-3.491,4.979-4.524,8.341-2.853c3.621,1.802,4.549,5.419,2.876,8.778c-0.656,1.322-1.397,2.113-1.813,2.416l-1.388-1.219 c0.488-0.409,1.05-1.045,1.496-1.943c1.112-2.234,0.513-4.548-2.131-5.862c-2.431-1.21-4.663-0.57-5.871,1.861 c-0.398,0.8-0.656,1.729-0.696,2.382L208.925,168.12z" clip-path="url(#SVGID_2_)"/><polygon fill="#FFF" points="215.394 180.396 211.314 177.638 208.402 181.942 212.482 184.701 211.226 186.56 201.043 179.674 202.3 177.815 206.786 180.85 209.698 176.545 205.212 173.511 206.469 171.651 216.649 178.537" clip-path="url(#SVGID_2_)"/><polygon fill="#FFF" points="197.515 192.262 200.573 188.786 197.864 186.402 194.444 190.289 193.061 189.073 197.963 183.502 207.188 191.618 202.467 196.983 201.085 195.768 204.323 192.085 201.942 189.99 198.884 193.467" clip-path="url(#SVGID_2_)"/><path fill="#FFF" d="M198.073,201.274c-0.655,0.772-1.512,1.676-2.511,2.557 c-1.723,1.521-3.213,2.204-4.688,2.24c-1.542,0.071-3.067-0.554-4.442-2.112c-1.46-1.654-1.974-3.366-1.798-4.932 c0.18-1.644,1.269-3.358,3.06-4.939c0.972-0.856,1.759-1.454,2.378-1.881L198.073,201.274z M189.488,194.937 c-0.269,0.164-0.624,0.479-0.966,0.779c-2.2,1.917-2.426,4.281-0.361,6.619c1.772,2.037,3.986,2.175,6.093,0.316 c0.533-0.471,0.865-0.838,1.064-1.11L189.488,194.937z" clip-path="url(#SVGID_2_)"/><polygon fill="#FFF" points="176.05 210.046 179.881 207.443 177.852 204.458 173.568 207.367 172.534 205.845 178.672 201.675 185.578 211.84 179.666 215.857 178.631 214.333 182.688 211.577 180.906 208.952 177.074 211.556" clip-path="url(#SVGID_2_)"/><polygon fill="#FFF" points="163.382 223.793 164.108 220.931 164.095 220.897 161.71 222.517 161.055 221.094 163.837 220.293 163.813 220.244 161.179 219.01 162.118 217.694 164.223 219.694 164.247 219.663 164.114 216.756 165.664 216.943 164.931 219.749 164.953 219.8 167.295 218.221 167.95 219.645 165.235 220.371 165.252 220.404 167.859 221.712 166.937 223.02 164.84 221.035 164.808 221.051 164.958 223.95" clip-path="url(#SVGID_2_)"/><path fill="#FFF" d="M93.92,218.948l1.752,14.598l-3.055-0.741l-0.288-3.227l-5.004-1.216 l-1.773,2.725l-2.962-0.72l8.313-12.152L93.92,218.948z M92.094,227.198l-0.494-5.32l-0.037-0.01l-2.937,4.488L92.094,227.198z" clip-path="url(#SVGID_2_)"/><polygon fill="#FFF" points="103.932 220.716 102.66 231.868 109.328 232.63 109.04 235.159 99.362 234.055 100.924 220.371" clip-path="url(#SVGID_2_)"/><path fill="#FFF" d="M119.34,221.528c0.861-0.009,1.596,0.11,2.203,0.355 c0.605,0.244,1.102,0.57,1.485,0.978c0.383,0.407,0.664,0.873,0.843,1.4c0.18,0.524,0.271,1.07,0.277,1.636 c0.006,0.553-0.076,1.097-0.244,1.633c-0.168,0.535-0.439,1.011-0.814,1.427c-0.375,0.414-0.864,0.751-1.465,1.007 c-0.603,0.258-1.334,0.39-2.194,0.398l-3.184,0.032l0.05,4.938l-3.028,0.03l-0.14-13.771L119.34,221.528z M118.576,228.019 c0.347-0.004,0.682-0.032,1.002-0.087c0.321-0.055,0.604-0.158,0.846-0.31c0.243-0.148,0.437-0.359,0.582-0.631 c0.146-0.272,0.217-0.627,0.211-1.063c-0.004-0.438-0.082-0.79-0.232-1.06c-0.15-0.267-0.35-0.475-0.595-0.621 c-0.246-0.145-0.53-0.241-0.852-0.289c-0.321-0.049-0.657-0.07-1.004-0.066l-2.354,0.023l0.043,4.128L118.576,228.019z" clip-path="url(#SVGID_2_)"/><polygon fill="#FFF" points="129.73 220.824 130.508 226.052 136.021 225.232 135.244 220.005 138.24 219.559 140.266 233.182 137.27 233.627 136.396 227.751 130.883 228.57 131.756 234.446 128.761 234.891 126.736 221.27" clip-path="url(#SVGID_2_)"/><path fill="#FFF" d="M148.131,216.847l8.84,11.749l-3.015,0.891l-1.869-2.646l-4.938,1.458 l-0.167,3.246l-2.923,0.864l1.093-14.683L148.131,216.847z M150.691,224.899l-3.098-4.354l-0.036,0.011l-0.289,5.354 L150.691,224.899z" clip-path="url(#SVGID_2_)"/></g></svg>