<svg xmlns="http://www.w3.org/2000/svg" xmlns:xlink="http://www.w3.org/1999/xlink" id="Layer_1" width="293.041" height="286.96" x="0" y="0" enable-background="new 0 0 293.041 286.96" version="1.1" viewBox="0 0 293.041 286.96" xml:space="preserve"><rect width="293.041" height="286.96" y="0" fill="#FFDA0A"/><g><defs><rect id="SVGID_1_" width="293.041" height="286.96"/></defs><clipPath id="SVGID_2_"><use overflow="visible" xlink:href="#SVGID_1_"/></clipPath><path fill="#13110C" d="M147.515,46.478l-9.938,0.469l-9.625,1.562l-9.312,2.313l-8.844,3.25 l-8.531,4.031l-7.906,4.969l-7.469,5.594l-6.969,6.218l-6.219,6.813l-5.593,7.469l-4.969,8.062l-4.031,8.375l-3.25,9l-2.313,9.156 l-1.562,9.625l-0.469,9.938l0.469,9.938l1.562,9.625l2.313,9.313l3.25,9l4.031,8.531l4.969,7.906l5.593,7.469l6.219,6.969 l6.969,6.219l7.469,5.594l7.906,4.813l8.531,4.188l8.844,3.25l9.312,2.313l9.625,1.563l9.938,0.469l9.937-0.469l9.625-1.563 l9.313-2.313l8.844-3.25l8.531-4.188l7.906-4.813l7.469-5.594l6.969-6.219l6.219-6.969l5.594-7.469l4.969-7.906l4.031-8.531l3.25-9 l2.313-9.313l1.563-9.625l0.469-9.938l-0.469-9.938l-1.563-9.625l-2.313-9.156l-3.25-9l-4.031-8.375l-4.969-8.062l-5.594-7.469 l-6.219-6.813l-6.969-6.218l-7.469-5.594l-7.906-4.969l-8.531-4.031l-8.844-3.25l-9.313-2.313l-9.625-1.562L147.515,46.478z M146.89,53.603l3.562,4.375l3.438,4.781l3.094,4.813l2.781,5.281l2.656,5.281l2.469,5.594l2.188,5.75l2,5.875l0.313,1.031 l2.813,2.094l2.937,2.469l2.938,2.5l2.812,2.781l2.625,2.938l2.813,3.125l2.468,3.406l2.469,3.406l2.344,3.719l2.188,4.062 l2.157,4.032l0.5,1.062l1.062-1.844l3.094-6.218l2.47-6.219l2.187-5.719l1.563-5.281l0.906-4.813l0.469-4.187l-0.156,6.187 l-0.313,6.219l-0.594,5.75l-0.781,5.75l-0.938,5.406l-1.25,5.438l-1.219,4.969l-1.563,4.969l-0.375,1.031l0.375,1l1.563,4.969 l1.219,5.125l1.25,5.25l0.938,5.438l0.781,5.75l0.594,5.75l0.313,6.188l0.156,6.219l-0.469-4.188l-0.906-4.813l-1.563-5.281 l-2.187-5.75l-2.47-6.031l-3.094-6.219l-1.094-1.844h-0.063l-0.405,0.906l-2.157,4.188l-2.188,3.875l-2.344,3.75l-2.469,3.563 l-2.468,3.25l-2.813,3.281l-2.625,2.938l-2.812,2.781l-2.938,2.5l-2.937,2.313l-2.595,2.031l-0.531,1.844l-2,5.906l-2.188,5.75 l-2.469,5.438l-2.656,5.438l-2.781,4.938l-3.094,4.969l-3.438,4.531l-3.562,4.188l-3.094-4.188l-3.094-4.531l-2.812-4.969 l-2.625-5.094l-2.5-5.281l-2.313-5.594l-0.875-2.25l-0.843-0.094l-5.282-1.375l-5.125-1.875l-4.968-2.469l-4.969-2.969 l-4.656-3.406l-4.344-4.031l-4.031-4.188l-3.719-4.656l-3.25-4.969l-2.813-5.125l-2.312-5.438l-1.563-5.749l-1.062-5.719 l-0.313-5.907l2.938,4.813l3.406,4.656l3.563,4.188l3.75,3.875l4.031,3.563l4.187,3.28l4.188,2.782l4.187,2.625l4.344,2.188 l4.188,1.875l3.656,1.156l-1-4.438l-1.094-6.188l-0.781-6.062l-0.625-6.063l-0.469-6.031l-0.156-5.906l0.156-6.063l0.469-6.187 l0.625-6.219l0.937-6.375l1.094-6.5l0.875-4.125l-3.687,1.312l-4.188,1.719l-4.344,2.188l-4.187,2.625l-4.188,2.937l-4.187,3.125 l-4.031,3.563l-3.75,4.031l-3.563,4.187l-3.406,4.5l-2.938,4.813l0.313-5.906l1.062-5.719l1.563-5.594l2.312-5.437l2.813-5.282 l3.25-4.812l3.719-4.656l4.031-4.344l4.344-3.875l4.656-3.406l4.969-2.969l4.968-2.469l5.125-1.875l5.282-1.375l0.718-0.094 l1.469-3.968l2.313-5.563l2.5-5.281l2.625-4.813l2.781-4.656l2.812-4.031L146.89,53.603z M129.452,85.509l-0.718,1.938l-2,6.062 l-1.719,6.188l-1.719,6.375l-0.5,2.25l0.656-0.219l4.032-1.094l4.031-0.625l3.75-0.312l3.562,0.156l3.25,0.469l7.75,2.312 l7.313,3.282l6.969,4.031l6.375,4.656l4.72,4l-0.688-5.406l-0.937-6.219l-1.375-6.031l-1.407-6.063l-1.406-4.875l-0.156-0.093 l-2.938-2l-3.094-1.719l-2.969-1.719l-3.094-1.375l-3.094-1.25l-3.125-0.937l-2.937-0.938l-3.094-0.625l-2.969-0.437l-2.937-0.313 h-5.125L129.452,85.509z M175.202,124.978l0.093,0.656l0.625,6.063l0.313,6.031l0.156,6.063l-0.156,5.906l-0.313,6.031 l-0.625,6.063l1.25-1.094l5.563-5.594l4.969-6.031l4.188-5.594l-4.188-5.594l-4.969-6.062l-5.563-5.719L175.202,124.978z M191.264,143.478l0.031,0.032v-0.063L191.264,143.478z M175.295,161.791l-4.813,4.187l-6.375,4.657l-6.969,3.875l-7.313,3.25 l-7.75,2.344l-3.25,0.469l-3.562,0.156l-3.75-0.313l-4.031-0.625l-4.032-1.094l-0.687-0.219l0.375,1.625l1.562,6.063l1.719,6.063 l1.844,5.875l1.312,3.344l4.282,0.531h5.125l2.937-0.313l2.969-0.469l3.094-0.594l2.937-0.938l3.125-0.938l3.094-1.25l3.094-1.375 l2.969-1.719l3.094-1.875l2.938-1.844l0.375-0.313l1.188-4.031l1.407-6.063l1.375-6.219l0.937-6.031L175.295,161.791z M203.014,143.416l-0.094-0.25v0.5L203.014,143.416z" clip-path="url(#SVGID_2_)"/><polygon points="101.841 250.508 104.42 249.066 104.435 249.032 101.617 248.416 102.199 246.959 104.695 248.43 104.716 248.379 103.798 245.616 105.401 245.393 105.397 248.297 105.437 248.294 107.454 246.195 108.386 247.451 105.843 248.851 105.822 248.9 108.582 249.514 107.999 250.97 105.602 249.5 105.589 249.533 106.435 252.327 104.851 252.558 104.847 249.669 104.814 249.655 102.813 251.761" clip-path="url(#SVGID_2_)"/><path d="M88.148,230.203c0.584,0.063,1.729,0.43,2.999,1.218c3.313,2.055,4.041,5.379,2.062,8.568 c-2.132,3.439-5.82,4.025-9.01,2.046c-1.255-0.776-1.975-1.588-2.237-2.029l1.344-1.269c0.362,0.525,0.944,1.144,1.795,1.671 c2.121,1.316,4.482,0.936,6.036-1.573c1.433-2.309,1.003-4.591-1.304-6.021c-0.76-0.471-1.66-0.814-2.307-0.915L88.148,230.203z" clip-path="url(#SVGID_2_)"/><polygon points="75.32 235.499 78.445 231.696 74.43 228.396 71.305 232.2 69.574 230.776 77.375 221.282 79.107 222.707 75.669 226.89 79.683 230.188 83.121 226.005 84.854 227.429 77.052 236.922" clip-path="url(#SVGID_2_)"/><path d="M65.004,226.159c-0.707-0.514-1.633-1.342-2.517-2.286c-1.211-1.291-1.808-2.355-1.876-3.44 c-0.049-0.879,0.314-1.744,1.086-2.467c1.156-1.085,2.677-1.036,3.767-0.459l0.04-0.037c-0.371-0.877-0.108-1.848,0.557-2.871 c0.843-1.34,1.655-2.552,1.841-3.049l1.57,1.676c-0.142,0.383-0.661,1.294-1.555,2.581c-0.92,1.363-0.906,2.124-0.06,3.08 l0.772,0.825l3.685-3.454l1.52,1.623L65.004,226.159z M67.435,220.834l-0.911-0.971c-1.035-1.104-2.256-1.234-3.147-0.399 c-0.971,0.911-0.801,2.025,0.198,3.089c0.485,0.52,0.837,0.815,1.026,0.938L67.435,220.834z" clip-path="url(#SVGID_2_)"/><rect width="12.285" height="2.242" x="53.652" y="210.008" clip-path="url(#SVGID_2_)" transform="matrix(-0.7917 0.6109 -0.6109 -0.7917 236.1137 341.7534)"/><path d="M58.966,203.79c-0.027-0.825-0.316-1.959-0.934-2.928c-0.762-1.2-1.762-1.516-2.609-0.978 c-0.783,0.499-0.913,1.316-0.558,2.928c0.482,2.113,0.269,3.783-1.224,4.732c-1.707,1.087-3.884,0.483-5.323-1.778 c-0.714-1.122-0.987-2.095-1.053-2.81l1.807-0.521c0.044,0.512,0.212,1.421,0.83,2.39c0.762,1.199,1.716,1.306,2.331,0.915 c0.8-0.509,0.788-1.344,0.445-3.072c-0.468-2.229-0.108-3.668,1.384-4.618c1.677-1.066,3.925-0.725,5.618,1.937 c0.705,1.107,1.121,2.441,1.13,3.235L58.966,203.79z" clip-path="url(#SVGID_2_)"/><polygon points="44.483 194.712 46.016 197.859 44.328 198.681 40.267 190.338 41.956 189.518 43.502 192.696 52.86 188.141 53.842 190.156" clip-path="url(#SVGID_2_)"/><polygon points="42.477 176.739 44.019 181.105 47.421 179.904 45.698 175.022 47.435 174.408 49.905 181.405 38.318 185.496 35.939 178.758 37.675 178.145 39.308 182.77 42.297 181.713 40.757 177.347" clip-path="url(#SVGID_2_)"/><polygon points="34.279 172.961 33.772 170.778 43.907 168.419 42.764 163.503 44.592 163.077 46.244 170.178" clip-path="url(#SVGID_2_)"/><rect width="12.284" height="2.242" x="31.588" y="157.595" clip-path="url(#SVGID_2_)" transform="matrix(-0.9904 0.1382 -0.1382 -0.9904 97.0405 310.6924)"/><path d="M30.716,149.986l-0.126-2.237l7.954-0.451c3.385-0.192,4.607,1.382,4.742,3.803 c0.036,0.637-0.028,1.408-0.182,1.909l-1.819-0.17c0.107-0.372,0.17-0.868,0.141-1.396c-0.072-1.274-0.699-2.023-2.828-1.903 L30.716,149.986z" clip-path="url(#SVGID_2_)"/><path d="M30.479,141.522l0.115-2.222l5.646,0.293l0.003-0.054c-0.459-0.316-0.879-0.648-1.283-0.961 l-4.15-3.448l0.144-2.75l5.006,4.496l7.282-4.132l-0.135,2.622l-5.807,3.168l1.253,1.179l4.317,0.224l-0.116,2.222L30.479,141.522z" clip-path="url(#SVGID_2_)"/><polygon points="39.528 121.528 38.75 126.095 42.31 126.7 43.179 121.594 44.996 121.903 43.75 129.221 31.632 127.159 32.833 120.111 34.647 120.42 33.824 125.257 36.952 125.789 37.73 121.222" clip-path="url(#SVGID_2_)"/><polygon points="38.396 102.849 39.956 105.359 39.991 105.371 40.475 102.529 41.955 103.043 40.604 105.603 40.655 105.621 43.373 104.577 43.668 106.165 40.769 106.297 40.772 106.337 42.964 108.255 41.752 109.244 40.238 106.769 40.186 106.751 39.704 109.535 38.222 109.021 39.579 106.559 39.543 106.547 36.792 107.523 36.489 105.951 39.374 105.813 39.386 105.779 37.189 103.878" clip-path="url(#SVGID_2_)"/><path d="M51.9,94.946c0.709-0.422,1.563-1.221,2.115-2.229c0.685-1.247,0.479-2.275-0.4-2.757 c-0.816-0.447-1.593-0.167-2.835,0.921c-1.621,1.44-3.188,2.057-4.737,1.207c-1.776-0.974-2.295-3.172-1.006-5.523 c0.639-1.167,1.361-1.874,1.955-2.276l1.328,1.332c-0.427,0.286-1.143,0.871-1.695,1.878c-0.685,1.247-0.318,2.134,0.322,2.485 c0.831,0.455,1.557,0.043,2.905-1.089c1.731-1.486,3.164-1.863,4.715-1.012c1.743,0.956,2.526,3.091,1.01,5.856 c-0.632,1.151-1.6,2.16-2.293,2.549L51.9,94.946z" clip-path="url(#SVGID_2_)"/><polygon points="52.874 77.891 50.853 80.747 49.32 79.662 54.68 72.09 56.213 73.175 54.169 76.061 62.663 82.073 61.368 83.903" clip-path="url(#SVGID_2_)"/><path d="M59.537,66.288l5.277,4.842c1.774,1.625,3.27,1.638,4.293,0.524 c1.096-1.196,0.93-2.659-0.842-4.285l-5.279-4.842l1.515-1.652l5.171,4.743c2.794,2.563,2.712,5.133,0.716,7.309 c-1.921,2.095-4.335,2.38-7.182-0.232l-5.185-4.755L59.537,66.288z" clip-path="url(#SVGID_2_)"/><path d="M69.418,56.424c0.681-0.75,1.569-1.623,2.596-2.469c1.775-1.46,3.286-2.091,4.762-2.077 c1.544-0.018,3.046,0.659,4.367,2.264c1.402,1.704,1.857,3.432,1.628,4.991c-0.237,1.635-1.385,3.311-3.229,4.83 c-1,0.822-1.807,1.392-2.442,1.796L69.418,56.424z M77.777,63.052c0.273-0.154,0.642-0.456,0.992-0.746 c2.265-1.839,2.571-4.193,0.589-6.601c-1.7-2.095-3.908-2.31-6.075-0.526c-0.549,0.452-0.896,0.808-1.102,1.073L77.777,63.052z" clip-path="url(#SVGID_2_)"/><polygon points="91.701 48.422 87.784 50.894 89.713 53.947 94.09 51.183 95.073 52.74 88.798 56.701 82.238 46.309 88.282 42.494 89.265 44.051 85.118 46.67 86.811 49.352 90.728 46.88" clip-path="url(#SVGID_2_)"/><path d="M98.838,50.623l-5.204-11.129l2.328-1.089l5.104,3.428c1.306,0.899,2.568,1.878,3.644,2.844 l0.033-0.015c-0.843-1.417-1.55-2.838-2.344-4.539l-1.815-3.88l1.883-0.88l5.205,11.129l-2.113,0.988l-5.2-3.545 c-1.282-0.89-2.642-1.904-3.773-2.904l-0.059,0.048c0.755,1.397,1.475,2.851,2.332,4.684l1.861,3.979L98.838,50.623z" clip-path="url(#SVGID_2_)"/><polygon points="111.378 34.133 108.045 35.203 107.471 33.415 116.307 30.579 116.881 32.367 113.514 33.447 116.694 43.36 114.56 44.045" clip-path="url(#SVGID_2_)"/><polygon points="129.472 34.7 124.932 35.604 125.637 39.145 130.713 38.133 131.074 39.938 123.797 41.388 121.396 29.34 128.405 27.943 128.765 29.749 123.956 30.707 124.575 33.817 129.116 32.913" clip-path="url(#SVGID_2_)"/><path d="M135.339,39.318l-0.843-12.253l2.564-0.178l3.525,5.037c0.894,1.309,1.719,2.677,2.373,3.965 l0.036-0.002c-0.275-1.625-0.421-3.205-0.55-5.077l-0.293-4.273l2.073-0.142l0.843,12.253l-2.328,0.161l-3.572-5.179 c-0.874-1.292-1.777-2.728-2.472-4.068l-0.072,0.023c0.201,1.575,0.349,3.191,0.487,5.209l0.303,4.381L135.339,39.318z" clip-path="url(#SVGID_2_)"/><polygon points="162.778 28.028 160.676 30.103 160.671 30.139 163.549 29.985 163.374 31.543 160.58 30.789 160.574 30.843 162.192 33.262 160.708 33.904 159.939 31.103 159.902 31.117 158.515 33.676 157.283 32.713 159.362 30.69 159.368 30.635 156.547 30.778 156.721 29.22 159.421 29.999 159.424 29.963 157.868 27.496 159.334 26.853 160.104 29.635 160.141 29.64 161.508 27.078" clip-path="url(#SVGID_2_)"/><path d="M174.903,42.385l-0.468-12.903l2.35,0.666l0.085,5.841c0.032,1.621,0.048,3.103-0.062,4.625 l0.034,0.01c0.715-1.313,1.561-2.627,2.425-3.935l3.252-4.913l2.297,0.652l-7.441,10.659L174.903,42.385z" clip-path="url(#SVGID_2_)"/><polygon points="193.365 43.217 189.094 41.427 187.698 44.757 192.474 46.758 191.761 48.456 184.919 45.588 189.668 34.255 196.26 37.017 195.548 38.716 191.024 36.821 189.799 39.745 194.07 41.536" clip-path="url(#SVGID_2_)"/><path d="M201.647,39.85c0.83,0.279,1.962,0.795,3.089,1.432c1.54,0.871,2.428,1.709,2.816,2.725 c0.309,0.824,0.22,1.758-0.301,2.679c-0.782,1.381-2.247,1.787-3.461,1.562l-0.026,0.047c0.615,0.726,0.654,1.733,0.324,2.907 c-0.405,1.531-0.819,2.931-0.848,3.46l-1.999-1.131c0.021-0.407,0.244-1.433,0.713-2.928c0.474-1.576,0.232-2.298-0.859-2.959 l-0.985-0.557l-2.487,4.397l-1.936-1.096L201.647,39.85z M200.919,45.659l1.159,0.655c1.317,0.745,2.521,0.505,3.123-0.558 c0.654-1.159,0.16-2.172-1.109-2.89c-0.619-0.351-1.043-0.527-1.26-0.588L200.919,45.659z" clip-path="url(#SVGID_2_)"/><polygon points="215.377 56.604 211.641 53.868 209.508 56.778 213.684 59.839 212.596 61.324 206.61 56.938 213.875 47.028 219.638 51.252 218.55 52.737 214.595 49.838 212.72 52.396 216.454 55.134" clip-path="url(#SVGID_2_)"/><path d="M215.937,64.048l8.456-8.918l1.865,1.768l-1.322,6.007c-0.359,1.544-0.809,3.079-1.313,4.434 l0.025,0.025c1.011-1.304,2.075-2.48,3.367-3.843l2.949-3.11l1.509,1.43l-8.456,8.919l-1.694-1.606l1.397-6.138 c0.358-1.519,0.806-3.156,1.32-4.575l-0.063-0.038c-1.025,1.214-2.115,2.417-3.508,3.886l-3.023,3.189L215.937,64.048z" clip-path="url(#SVGID_2_)"/><rect width="12.284" height="2.242" x="225.594" y="70.297" clip-path="url(#SVGID_2_)" transform="matrix(0.7606 -0.6492 0.6492 0.7606 9.1093 167.5397)"/><path d="M237.019,87.866c-0.686-0.479-1.885-1.513-2.805-2.848c-1.179-1.711-1.643-3.317-1.388-4.907 c0.234-1.49,1.218-2.921,2.748-3.975c3.223-2.198,6.824-1.338,9.132,2.009c0.856,1.245,1.274,2.396,1.369,3.016l-1.765,0.619 c-0.127-0.731-0.412-1.53-1.146-2.596c-1.491-2.161-3.811-2.798-6.167-1.174c-2.295,1.582-2.689,3.933-1.242,6.034 c0.466,0.675,0.888,1.093,1.158,1.261l2.535-1.747l-1.23-1.786l1.456-1.003l2.461,3.572L237.019,87.866z" clip-path="url(#SVGID_2_)"/><rect width="12.29" height="2.244" x="238.65" y="89.248" clip-path="url(#SVGID_2_)" transform="matrix(0.8777 -0.4791 0.4791 0.8777 -13.3716 128.3343)"/><path d="M242.271,98.7l11.342-4.734l0.99,2.373l-3.641,4.958c-0.953,1.267-1.985,2.488-2.996,3.523 l0.015,0.033c1.451-0.783,2.901-1.429,4.635-2.152l3.954-1.65l0.801,1.918l-11.342,4.735l-0.898-2.154l3.761-5.049 c0.943-1.243,2.014-2.56,3.062-3.649l-0.045-0.06c-1.429,0.696-2.913,1.354-4.781,2.134l-4.055,1.692L242.271,98.7z" clip-path="url(#SVGID_2_)"/><path d="M250.639,121.761c-0.48-0.685-1.256-2.065-1.668-3.635c-0.526-2.011-0.416-3.68,0.364-5.091 c0.729-1.322,2.143-2.332,3.942-2.803c3.78-0.971,6.876,1.066,7.906,5c0.383,1.465,0.383,2.689,0.261,3.306l-1.87-0.02 c0.129-0.731,0.134-1.58-0.195-2.833c-0.665-2.54-2.63-3.93-5.4-3.205c-2.699,0.706-3.87,2.785-3.225,5.255 c0.208,0.794,0.462,1.331,0.659,1.581l2.981-0.781l-0.55-2.099l1.711-0.448l1.1,4.199L250.639,121.761z" clip-path="url(#SVGID_2_)"/><polygon points="263.748 137.023 261.317 135.343 261.282 135.345 261.969 138.145 260.406 138.263 260.625 135.377 260.57 135.381 258.496 137.42 257.59 136.082 260.198 134.806 260.178 134.771 257.405 133.884 258.122 132.496 260.498 134.162 260.552 134.158 259.886 131.411 261.45 131.293 261.186 134.091 261.223 134.089 263.357 132.099 264.261 133.419 261.67 134.694 261.674 134.731 264.445 135.599" clip-path="url(#SVGID_2_)"/><polygon points="256.865 156.8 257.287 152.19 253.693 151.861 253.22 157.017 251.386 156.849 252.064 149.46 264.299 150.581 263.647 157.696 261.813 157.529 262.261 152.646 259.103 152.356 258.68 156.967" clip-path="url(#SVGID_2_)"/><path d="M250.776,161.125l11.997,2.636l-0.55,2.51l-5.826,1.968c-1.508,0.489-3.053,0.896-4.472,1.163 l-0.008,0.035c1.636,0.191,3.192,0.496,5.026,0.899l4.183,0.919l-0.445,2.029l-11.998-2.636l0.5-2.278l5.976-1.972 c1.485-0.477,3.118-0.938,4.6-1.229l-0.002-0.075c-1.567-0.251-3.161-0.563-5.137-0.997l-4.29-0.942L250.776,161.125z" clip-path="url(#SVGID_2_)"/><path d="M249.553,176.178c-0.632,0.528-1.349,1.455-1.734,2.537c-0.476,1.341-0.109,2.321,0.836,2.658 c0.877,0.312,1.6-0.09,2.651-1.36c1.371-1.681,2.818-2.539,4.485-1.947c1.907,0.678,2.771,2.765,1.873,5.291 c-0.445,1.254-1.045,2.066-1.567,2.558l-1.524-1.103c0.376-0.351,0.99-1.041,1.375-2.123c0.476-1.341-0.026-2.158-0.713-2.403 c-0.894-0.317-1.545,0.206-2.695,1.539c-1.471,1.742-2.826,2.343-4.492,1.751c-1.874-0.666-2.987-2.647-1.933-5.621 c0.441-1.237,1.236-2.386,1.858-2.881L249.553,176.178z" clip-path="url(#SVGID_2_)"/><path d="M239.404,194.516c0.007-0.588,0.266-1.763,0.931-3.1c1.737-3.491,4.979-4.524,8.341-2.853 c3.621,1.802,4.549,5.419,2.876,8.778c-0.656,1.322-1.397,2.113-1.813,2.416l-1.388-1.219c0.488-0.409,1.05-1.045,1.496-1.943 c1.112-2.234,0.513-4.548-2.131-5.862c-2.431-1.21-4.663-0.57-5.871,1.861c-0.398,0.8-0.656,1.729-0.696,2.382L239.404,194.516z" clip-path="url(#SVGID_2_)"/><polygon points="245.873 206.791 241.794 204.033 238.882 208.338 242.962 211.097 241.705 212.955 231.522 206.069 232.779 204.211 237.266 207.245 240.178 202.94 235.691 199.906 236.948 198.047 247.129 204.933" clip-path="url(#SVGID_2_)"/><polygon points="227.994 218.657 231.053 215.182 228.344 212.798 224.924 216.685 223.54 215.469 228.442 209.897 237.667 218.014 232.946 223.379 231.564 222.163 234.803 218.48 232.422 216.386 229.363 219.862" clip-path="url(#SVGID_2_)"/><path d="M228.553,227.67c-0.655,0.772-1.512,1.676-2.511,2.557c-1.723,1.521-3.213,2.204-4.688,2.24 c-1.542,0.071-3.067-0.554-4.442-2.112c-1.46-1.654-1.974-3.366-1.798-4.932c0.18-1.644,1.269-3.358,3.06-4.939 c0.972-0.856,1.759-1.454,2.378-1.881L228.553,227.67z M219.968,221.332c-0.269,0.164-0.624,0.479-0.966,0.779 c-2.2,1.917-2.426,4.281-0.361,6.619c1.772,2.037,3.986,2.175,6.093,0.316c0.533-0.471,0.865-0.838,1.064-1.11L219.968,221.332z" clip-path="url(#SVGID_2_)"/><polygon points="206.529 236.441 210.36 233.839 208.331 230.854 204.048 233.763 203.014 232.24 209.151 228.07 216.058 238.235 210.146 242.253 209.11 240.729 213.168 237.973 211.386 235.348 207.554 237.951" clip-path="url(#SVGID_2_)"/><polygon points="193.861 250.188 194.588 247.326 194.574 247.293 192.189 248.912 191.534 247.489 194.316 246.688 194.293 246.64 191.658 245.405 192.598 244.09 194.702 246.09 194.727 246.059 194.594 243.151 196.144 243.339 195.41 246.145 195.433 246.195 197.774 244.616 198.43 246.04 195.715 246.767 195.731 246.8 198.339 248.107 197.416 249.415 195.319 247.431 195.287 247.446 195.438 250.346" clip-path="url(#SVGID_2_)"/><path d="M124.399,245.344l1.752,14.598l-3.055-0.741l-0.288-3.227l-5.004-1.216l-1.773,2.725 l-2.962-0.72l8.313-12.152L124.399,245.344z M122.573,253.594l-0.494-5.32l-0.037-0.01l-2.937,4.488L122.573,253.594z" clip-path="url(#SVGID_2_)"/><polygon points="134.411 247.111 133.139 258.264 139.807 259.025 139.519 261.555 129.841 260.45 131.403 246.767" clip-path="url(#SVGID_2_)"/><path d="M149.819,247.924c0.861-0.009,1.596,0.11,2.203,0.355c0.605,0.244,1.102,0.57,1.485,0.978 c0.383,0.407,0.664,0.873,0.843,1.4c0.18,0.524,0.271,1.07,0.277,1.636c0.006,0.553-0.076,1.097-0.244,1.633 c-0.168,0.535-0.439,1.011-0.814,1.427c-0.375,0.414-0.864,0.751-1.465,1.007c-0.603,0.258-1.334,0.39-2.194,0.398l-3.184,0.032 l0.05,4.938l-3.028,0.03l-0.14-13.771L149.819,247.924z M149.056,254.414c0.347-0.004,0.682-0.032,1.002-0.087 c0.321-0.055,0.604-0.158,0.846-0.31c0.243-0.148,0.437-0.359,0.582-0.631c0.146-0.272,0.217-0.627,0.211-1.063 c-0.004-0.438-0.082-0.79-0.232-1.06c-0.15-0.267-0.35-0.475-0.595-0.621c-0.246-0.145-0.53-0.241-0.852-0.289 c-0.321-0.049-0.657-0.07-1.004-0.066l-2.354,0.023l0.043,4.128L149.056,254.414z" clip-path="url(#SVGID_2_)"/><polygon points="160.21 247.22 160.987 252.447 166.501 251.628 165.724 246.4 168.72 245.954 170.745 259.577 167.749 260.022 166.876 254.146 161.362 254.966 162.235 260.842 159.24 261.286 157.216 247.665" clip-path="url(#SVGID_2_)"/><path d="M178.61,243.242l8.84,11.749l-3.015,0.891l-1.869-2.646l-4.938,1.458l-0.167,3.246 l-2.923,0.864l1.093-14.683L178.61,243.242z M181.171,251.295l-3.098-4.354l-0.036,0.011l-0.289,5.354L181.171,251.295z" clip-path="url(#SVGID_2_)"/></g></svg>