<svg xmlns="http://www.w3.org/2000/svg" xmlns:xlink="http://www.w3.org/1999/xlink" id="Layer_1" width="217.667" height="217.666" x="0" y="0" enable-background="new 0 0 217.667 217.666" version="1.1" viewBox="0 0 217.667 217.666" xml:space="preserve"><g><path fill="#010202" d="M108.833,9.188l-9.938,0.469l-9.625,1.562l-9.312,2.313l-8.844,3.25l-8.531,4.031l-7.906,4.969 l-7.469,5.594l-6.969,6.218l-6.219,6.813l-5.593,7.469l-4.969,8.062l-4.031,8.375l-3.25,9l-2.313,9.156l-1.562,9.625l-0.469,9.938 l0.469,9.938l1.562,9.625l2.313,9.313l3.25,9l4.031,8.531l4.969,7.906l5.593,7.469l6.219,6.969l6.969,6.219l7.469,5.594 l7.906,4.813l8.531,4.188l8.844,3.25l9.312,2.313l9.625,1.563l9.938,0.469l9.937-0.469l9.625-1.563l9.313-2.313l8.844-3.25 l8.531-4.188l7.906-4.813l7.469-5.594l6.969-6.219l6.219-6.969l5.594-7.469l4.969-7.906l4.031-8.531l3.25-9l2.313-9.313 l1.563-9.625l0.469-9.938l-0.469-9.938l-1.563-9.625l-2.313-9.156l-3.25-9l-4.031-8.375l-4.969-8.062l-5.594-7.469l-6.219-6.813 l-6.969-6.218l-7.469-5.594l-7.906-4.969l-8.531-4.031l-8.844-3.25l-9.313-2.313l-9.625-1.562L108.833,9.188z M108.208,16.313 l3.562,4.375l3.438,4.781l3.094,4.813l2.781,5.281l2.656,5.281l2.469,5.594l2.188,5.75l2,5.875l0.313,1.031l2.813,2.094 l2.937,2.469l2.938,2.5l2.812,2.781l2.625,2.938l2.813,3.125l2.468,3.406l2.469,3.406l2.344,3.719l2.188,4.062l2.157,4.032 l0.5,1.062l1.062-1.844l3.094-6.218l2.47-6.219l2.187-5.719l1.563-5.281l0.906-4.813l0.469-4.187l-0.156,6.187l-0.313,6.219 l-0.594,5.75l-0.781,5.75l-0.938,5.406l-1.25,5.438l-1.219,4.969l-1.563,4.969l-0.375,1.031l0.375,1l1.563,4.969l1.219,5.125 l1.25,5.25l0.938,5.438l0.781,5.75l0.594,5.75l0.313,6.188l0.156,6.219l-0.469-4.188l-0.906-4.813l-1.563-5.281l-2.187-5.75 l-2.47-6.031l-3.094-6.219l-1.094-1.844h-0.063l-0.405,0.906l-2.157,4.188l-2.188,3.875l-2.344,3.75l-2.469,3.563l-2.468,3.25 l-2.813,3.281l-2.625,2.938l-2.812,2.781l-2.938,2.5l-2.937,2.313l-2.595,2.031l-0.531,1.844l-2,5.906l-2.188,5.75l-2.469,5.438 l-2.656,5.438l-2.781,4.938l-3.094,4.969l-3.438,4.531l-3.562,4.188l-3.094-4.188l-3.094-4.531l-2.812-4.969l-2.625-5.094 l-2.5-5.281l-2.313-5.594l-0.875-2.25l-0.843-0.094l-5.282-1.375l-5.125-1.875l-4.968-2.469l-4.969-2.969l-4.656-3.406 l-4.344-4.031l-4.031-4.188l-3.719-4.656l-3.25-4.969l-2.813-5.125l-2.312-5.438l-1.563-5.749l-1.062-5.719l-0.313-5.907 l2.938,4.813l3.406,4.656l3.563,4.188l3.75,3.875l4.031,3.563l4.187,3.28l4.188,2.782l4.187,2.625l4.344,2.188l4.188,1.875 l3.656,1.156l-1-4.438l-1.094-6.188l-0.781-6.062l-0.625-6.063l-0.469-6.031l-0.156-5.906l0.156-6.063l0.469-6.187l0.625-6.219 l0.937-6.375l1.094-6.5l0.875-4.125l-3.687,1.312l-4.188,1.719l-4.344,2.188l-4.187,2.625l-4.188,2.937l-4.187,3.125l-4.031,3.563 l-3.75,4.031l-3.563,4.187l-3.406,4.5l-2.938,4.813l0.313-5.906l1.062-5.719l1.563-5.594l2.312-5.437l2.813-5.282l3.25-4.812 l3.719-4.656l4.031-4.344l4.344-3.875l4.656-3.406l4.969-2.969l4.968-2.469l5.125-1.875l5.282-1.375l0.718-0.094l1.469-3.968 l2.313-5.563l2.5-5.281l2.625-4.813l2.781-4.656l2.812-4.031L108.208,16.313z M90.771,48.219l-0.718,1.938l-2,6.062l-1.719,6.188 l-1.719,6.375l-0.5,2.25l0.656-0.219l4.032-1.094l4.031-0.625l3.75-0.312l3.562,0.156l3.25,0.469l7.75,2.312l7.313,3.282 l6.969,4.031l6.375,4.656l4.72,4l-0.688-5.406l-0.937-6.219l-1.375-6.031l-1.407-6.063l-1.406-4.875l-0.156-0.093l-2.938-2 l-3.094-1.719l-2.969-1.719l-3.094-1.375l-3.094-1.25l-3.125-0.937l-2.937-0.938l-3.094-0.625l-2.969-0.437l-2.937-0.313h-5.125 L90.771,48.219z M136.521,87.688l0.093,0.656l0.625,6.063l0.313,6.031l0.156,6.063l-0.156,5.906l-0.313,6.031l-0.625,6.063 l1.25-1.094l5.563-5.594l4.969-6.031l4.188-5.594l-4.188-5.594l-4.969-6.062l-5.563-5.719L136.521,87.688z M152.583,106.188 l0.031,0.032v-0.063L152.583,106.188z M136.614,124.501l-4.813,4.187l-6.375,4.657l-6.969,3.875l-7.313,3.25l-7.75,2.344 l-3.25,0.469l-3.562,0.156l-3.75-0.313l-4.031-0.625l-4.032-1.094l-0.687-0.219l0.375,1.625l1.562,6.063l1.719,6.063l1.844,5.875 l1.312,3.344l4.282,0.531h5.125l2.937-0.313l2.969-0.469l3.094-0.594l2.937-0.938l3.125-0.938l3.094-1.25l3.094-1.375l2.969-1.719 l3.094-1.875l2.938-1.844l0.375-0.313l1.188-4.031l1.407-6.063l1.375-6.219l0.937-6.031L136.614,124.501z M164.333,106.126 l-0.094-0.25v0.5L164.333,106.126z"/></g></svg>