<svg xmlns="http://www.w3.org/2000/svg" id="Layer_1" data-name="Layer 1" viewBox="0 0 482.5 753.25"><defs><style>.cls-1{fill:#548897}.cls-2{fill:#f26b6b}</style></defs><title>lustrum-logo-basis-kleur</title><path d="M571.84,501.41q-4.53-4.53-9.25-8.77c-15,22.82-34.1,50-58.27,84.47L493.16,593a121.25,121.25,0,1,1-183.82,0L298.18,577.1c-24.17-34.42-43.27-61.64-58.27-84.46q-4.72,4.25-9.25,8.77a241.25,241.25,0,1,0,341.18,0Z" class="cls-1" transform="translate(-160 -160)"/><path d="M421,661.67C566.28,451,593.25,429.41,593.25,352c0-106-86-192-192-192s-192,86-192,192c0,77.41,27,99,172.27,309.67A24,24,0,0,0,421,661.67ZM321.25,352a80,80,0,1,1,80,80A80,80,0,0,1,321.25,352Z" class="cls-2" transform="translate(-160 -160)"/></svg>